<svg id="logo" data-name="logo" xmlns="http://www.w3.org/2000/svg" viewBox="0 0 277.53 277.53" width="60px" height="60px">
    <polygon fill="#0061aa" fill-rule="evenodd" points="81.31 0 0 81.26 0 196.27 81.31 277.53 196.21 277.53 277.53 196.27 277.53 81.26 196.21 0 81.31 0 81.31 0"/>
    <path fill="#fff" d="M153.59,194.93H123.13V105.07h30.46c25.78,0,45.12,19.08,45.12,44.87S179.37,194.93,153.59,194.93Zm0-70.27H142.72v50.56h10.87c14.91,0,25.53-10.24,25.53-25.28S168.5,124.66,153.59,124.66Z" transform="translate(-11.24 -11.24)"/>
    <polygon fill="#fff" points="189.95 185.44 189.95 115.05 163.46 115.05 163.46 92.33 239.76 92.33 239.76 115.05 213.04 115.05 213.04 185.44 189.95 185.44"/>
    <path fill="#0061aa" d="M249.24,105.32v19.22H222.53v70.39H202.94V124.54H176.45V105.32h72.8m3.5-3.5h-79.8V128h26.49v70.39H226V128h26.72V101.82Z" transform="translate(-11.24 -11.24)"/>
    <path fill="#fff" d="M120,196.68l-4.65-9.19H77.78L73,196.68H47.9l48.67-95.25,48.54,95.25Zm-16-31.3-7.44-14.62L89,165.38Z" transform="translate(-11.24 -11.24)"/>
    <path fill="#0061aa" d="M96.56,105.28l45.68,89.65H121.06l-4.65-9.19H76.72l-4.78,9.19H50.76l45.8-89.65M86.15,167.13h20.7L96.56,146.92,86.15,167.13M96.57,97.58l-3.12,6.11-45.8,89.65L45,198.43h29l1-1.89,3.8-7.3h35.41l3.68,7.27,1,1.92h29l-2.59-5.09L99.68,103.69l-3.11-6.11Zm-4.67,66,4.65-9,4.6,9Z" transform="translate(-11.24 -11.24)"/>
</svg>