<?xml version="1.0" encoding="UTF-8" standalone="no"?>
<svg
   xmlns:dc="http://purl.org/dc/elements/1.1/"
   xmlns:cc="http://creativecommons.org/ns#"
   xmlns:rdf="http://www.w3.org/1999/02/22-rdf-syntax-ns#"
   xmlns:svg="http://www.w3.org/2000/svg"
   xmlns="http://www.w3.org/2000/svg"
   xmlns:sodipodi="http://sodipodi.sourceforge.net/DTD/sodipodi-0.dtd"
   xmlns:inkscape="http://www.inkscape.org/namespaces/inkscape"
   id="svg2"
   version="1.1"
   xml:space="preserve"
   width="64.506248"
   height="53.041248"
   viewBox="0 0 64.506248 53.041248"
   sodipodi:docname="freenas.svg"
   inkscape:version="0.92.4 5da689c313, 2019-01-14"><sodipodi:namedview
     pagecolor="#ffffff"
     bordercolor="#666666"
     borderopacity="1"
     objecttolerance="10"
     gridtolerance="10"
     guidetolerance="10"
     inkscape:pageopacity="0"
     inkscape:pageshadow="2"
     inkscape:window-width="1920"
     inkscape:window-height="1023"
     id="namedview876"
     showgrid="false"
     inkscape:zoom="15.384253"
     inkscape:cx="20.650351"
     inkscape:cy="26.520624"
     inkscape:window-x="1920"
     inkscape:window-y="27"
     inkscape:window-maximized="1"
     inkscape:current-layer="svg2" /><metadata
     id="metadata8"><rdf:RDF><cc:Work
         rdf:about=""><dc:format>image/svg+xml</dc:format><dc:type
           rdf:resource="http://purl.org/dc/dcmitype/StillImage" /><dc:title /></cc:Work></rdf:RDF></metadata><defs
     id="defs6"><clipPath
       clipPathUnits="userSpaceOnUse"
       id="clipPath36"><path
         d="m 0,42.493 180.37,0 0,-42.433 L 0,0.06 0,42.493 Z"
         id="path38" /></clipPath></defs><g
     style="fill:#343434;fill-opacity:1"
     id="g10"
     transform="matrix(1.25,0,0,-1.25,0,53.11625)"><path
       d="m 42.14,41.229 0.307,0 c 0.129,0 0.217,-0.022 0.267,-0.068 0.049,-0.046 0.074,-0.106 0.074,-0.179 0,-0.097 -0.037,-0.165 -0.109,-0.208 -0.071,-0.042 -0.183,-0.063 -0.329,-0.063 l -0.21,0 0,0.518 z m 0,-0.841 0.194,0 0.46,-0.724 0.437,0 -0.521,0.766 0,0.015 c 0.146,0.028 0.262,0.086 0.347,0.175 0.083,0.09 0.126,0.21 0.126,0.362 0,0.106 -0.023,0.196 -0.065,0.268 -0.043,0.074 -0.1,0.131 -0.171,0.177 -0.071,0.046 -0.154,0.078 -0.246,0.097 -0.092,0.02 -0.188,0.029 -0.286,0.029 l -0.651,0 0,-1.889 0.376,0 0,0.724"
       style="fill:#343434;fill-opacity:1;fill-rule:nonzero;stroke:none"
       id="path30" /><g
       style="fill:#343434;fill-opacity:1"
       id="g32"><g
         style="fill:#343434;fill-opacity:1"
         id="g34"
         clip-path="url(#clipPath36)"><path
           d="m 41.098,41.178 c 0.068,0.182 0.164,0.34 0.293,0.473 0.126,0.133 0.279,0.239 0.455,0.316 0.179,0.078 0.376,0.115 0.595,0.115 0.218,0 0.415,-0.037 0.595,-0.115 0.178,-0.077 0.329,-0.183 0.456,-0.316 0.127,-0.133 0.224,-0.291 0.292,-0.473 0.07,-0.182 0.105,-0.375 0.105,-0.58 0,-0.206 -0.035,-0.399 -0.105,-0.582 -0.068,-0.182 -0.165,-0.339 -0.292,-0.472 -0.127,-0.132 -0.278,-0.237 -0.456,-0.315 -0.18,-0.079 -0.377,-0.116 -0.595,-0.116 -0.219,0 -0.416,0.037 -0.595,0.116 -0.176,0.078 -0.329,0.183 -0.455,0.315 -0.129,0.133 -0.225,0.29 -0.293,0.472 -0.071,0.183 -0.105,0.376 -0.105,0.582 0,0.205 0.034,0.398 0.105,0.58 z m 0.028,-1.9 c 0.167,-0.164 0.362,-0.292 0.588,-0.385 0.226,-0.092 0.468,-0.138 0.727,-0.138 0.259,0 0.502,0.046 0.728,0.138 0.225,0.093 0.419,0.221 0.585,0.385 0.167,0.164 0.296,0.356 0.391,0.582 0.097,0.225 0.144,0.47 0.144,0.738 0,0.266 -0.047,0.511 -0.144,0.736 -0.095,0.225 -0.224,0.42 -0.391,0.583 -0.166,0.165 -0.36,0.292 -0.585,0.385 -0.226,0.092 -0.469,0.138 -0.728,0.138 -0.259,0 -0.501,-0.046 -0.727,-0.138 -0.226,-0.093 -0.421,-0.22 -0.588,-0.385 -0.165,-0.163 -0.295,-0.358 -0.389,-0.583 -0.098,-0.225 -0.143,-0.47 -0.143,-0.736 0,-0.268 0.045,-0.513 0.143,-0.738 0.094,-0.226 0.224,-0.418 0.389,-0.582"
           style="fill:#343434;fill-opacity:1;fill-rule:nonzero;stroke:none"
           id="path40" /><path
           d="M 37.119,12.7 C 36.627,11.614 35.935,10.741 35.118,10.088 33.863,9.082 32.326,8.593 30.8,8.593 c -1.942,0 -3.877,0.793 -5.21,2.332 -0.49,0.563 -0.791,1.193 -0.945,1.838 -0.088,0.367 -0.128,0.742 -0.128,1.117 0.004,1.837 0.92,3.677 1.817,5.079 0.452,0.702 0.899,1.294 1.237,1.707 l 0.448,-0.547 c 0.022,-0.029 0.047,-0.062 0.078,-0.099 0.114,-0.137 0.284,-0.333 0.506,-0.572 0.441,-0.476 1.091,-1.115 1.915,-1.756 1.647,-1.284 3.978,-2.574 6.722,-2.643 0.025,0 0.05,-0.007 0.075,-0.009 0.043,0.009 0.09,0.009 0.138,0 0.186,-0.038 0.311,-0.217 0.272,-0.407 -0.134,-0.708 -0.343,-1.349 -0.606,-1.933 z m 14.448,15.104 c 0,0 0,0 0,0.001 -0.381,-0.536 -0.96,-1.237 -1.766,-1.948 -1.616,-1.428 -4.163,-2.888 -7.846,-3.086 L 40.87,20.78 c -0.065,-0.118 -0.185,-0.19 -0.316,-0.193 -0.133,-0.003 -0.256,0.066 -0.326,0.177 l -1.249,2.051 c -0.591,-0.109 -2.116,-0.361 -3.887,-0.361 -2.958,0.064 -3.886,0.519 -4.865,1.143 l 3.308,4.456 -7.094,1.643 8.894,1.709 c 2.597,5.24 3.403,9.722 3.601,11.088 -9.972,-1.104 -17.42,-3.58 -22.209,-5.657 l -0.385,-0.17 c -0.025,-0.01 -0.049,-0.021 -0.073,-0.031 l -0.535,0.518 c -0.13,0.109 -0.288,0.237 -0.472,0.38 -0.609,0.473 -1.508,1.105 -2.664,1.737 -2.311,1.266 -5.638,2.529 -9.712,2.529 -0.621,0 -1.267,-0.02 -1.923,-0.092 -1.056,-0.066 -0.545,-0.329 -0.417,-0.436 0.485,-0.398 1.17,-1.234 1.62,-2.392 0.454,-1.163 0.761,-2.73 0.761,-4.846 0,-0.591 -0.026,-1.245 -0.077,-1.926 C 2.43,31.326 2.04,30.512 1.69,29.671 0.668,27.21 0,24.518 0,21.747 0,16.821 1.936,12.333 4.689,8.686 L 5.062,8.123 2.149,2.317 C 2.119,2.258 2.138,2.182 2.194,2.145 2.217,2.129 2.244,2.123 2.27,2.123 c 0.037,0 0.074,0.015 0.1,0.044 L 6.921,6.173 7.454,5.656 C 11.324,2.142 16.462,0 22.101,0 31.812,0 40.037,6.35 42.855,15.12 l 0.62,0.266 c 0.13,0.046 0.322,0.118 0.559,0.219 0.477,0.2 1.139,0.519 1.875,0.974 1.471,0.911 3.23,2.38 4.398,4.604 0.777,1.481 1.298,3.302 1.298,5.542 0,0.351 -0.013,0.709 -0.038,1.079"
           style="fill:#343434;fill-opacity:1;fill-rule:nonzero;stroke:none"
           id="path42" /></g></g></g><path
     style="opacity:1;vector-effect:none;fill:#000000;fill-opacity:1;stroke:#ffffff;stroke-width:0.06500153;stroke-linecap:butt;stroke-linejoin:miter;stroke-miterlimit:4;stroke-dasharray:none;stroke-dashoffset:0;stroke-opacity:1"
     d="M 24.400939,52.956757 C 21.934332,52.655377 19.32081,51.966468 17.095954,51.031206 14.297256,49.854718 11.579642,48.126386 9.3530853,46.106942 8.6548688,45.473673 8.635014,45.461163 8.5080654,45.574485 8.4365637,45.638312 7.1410033,46.777359 5.6290425,48.1057 3.2214247,50.220927 2.8642135,50.512407 2.7527248,50.45274 2.682711,50.415269 2.625427,50.351542 2.625427,50.311123 c 0,-0.04042 0.8190192,-1.69135 1.8200428,-3.668734 C 5.4464933,44.665003 6.2651192,43.009875 6.2646384,42.964326 6.2641577,42.918777 6.0111323,42.530501 5.70236,42.101491 4.371543,40.252446 3.5168833,38.85066 2.6904033,37.161375 1.2656372,34.249221 0.42344561,31.382434 0.08381945,28.288666 -0.0384449,27.174919 -0.02177812,24.557013 0.11485665,23.413551 0.48905287,20.281996 1.3979342,17.314002 2.9414022,14.183334 l 0.6249119,-1.26753 2.795e-4,-2.242553 C 3.5669023,8.2445769 3.5118647,7.6230954 3.1665231,6.1556449 2.7103699,4.2173258 1.8734323,2.65035 0.75531844,1.6412114 0.36004349,1.2844613 0.33034498,1.2402 0.42364481,1.1469002 0.58484608,0.98569893 1.1679144,0.92377327 2.9313776,0.88056272 6.4090789,0.79534773 9.3770657,1.302863 12.570661,2.5288462 15.28121,3.5693935 18.306739,5.3617454 19.917292,6.88106 l 0.43701,0.412254 0.481511,-0.2194315 c 0.77039,-0.3510785 3.300757,-1.356284 4.57265,-1.8165168 5.325491,-1.9270225 11.1014,-3.4204429 17.138148,-4.43124358 1.875194,-0.31398473 4.724488,-0.71246266 5.632299,-0.78768498 l 0.539923,-0.04473873 -0.03464,0.15590439 c -0.01905,0.0857474 -0.09617,0.50691265 -0.171364,0.9359227 -0.653838,3.7302588 -2.459388,9.1322475 -4.171085,12.4793835 l -0.16574,0.324097 -5.451176,1.049963 c -2.998147,0.57748 -5.4073,1.067187 -5.353673,1.088238 0.05363,0.02105 1.996172,0.4775 4.316769,1.01433 2.320597,0.536831 4.228826,0.985615 4.240511,0.997299 0.01168,0.01168 -0.88789,1.24515 -1.999054,2.741035 -1.111165,1.495885 -2.033259,2.753561 -2.049098,2.794836 -0.03857,0.100504 1.114301,0.697829 1.741578,0.902348 1.846337,0.601986 5.15106,0.69392 8.235092,0.229093 0.477387,-0.07195 0.881407,-0.117393 0.897821,-0.100979 0.01641,0.01641 0.372063,0.593074 0.790331,1.281467 0.418269,0.688392 0.837224,1.308915 0.931012,1.378938 0.320075,0.23897 0.454902,0.09545 1.206666,-1.284463 0.370058,-0.679266 0.721396,-1.271592 0.780752,-1.316281 0.05935,-0.04469 0.25214,-0.08125 0.42841,-0.08125 0.629449,0 2.431266,-0.312974 3.382631,-0.587559 2.004929,-0.578668 3.82231,-1.512787 5.437246,-2.794702 0.655615,-0.520418 2.070218,-1.962685 2.437557,-2.485224 0.143003,-0.203422 0.281944,-0.370489 0.308757,-0.37126 0.07371,-0.0021 0.0584,2.44997 -0.01979,3.169984 -0.172692,1.590242 -0.666532,3.353948 -1.315102,4.69676 -0.676842,1.401348 -1.432075,2.473147 -2.581446,3.663495 -1.658007,1.717117 -3.658309,3.032139 -6.08876,4.002822 l -0.856137,0.341927 -0.237637,0.690758 c -0.336303,0.977556 -0.807636,2.080112 -1.364807,3.192598 -1.341247,2.678024 -2.90292,4.829636 -5.098706,7.024795 -1.764165,1.763661 -3.231184,2.917027 -5.263176,4.137892 -3.300242,1.982856 -7.011431,3.247641 -10.828578,3.690411 -1.081281,0.125424 -5.377832,0.125746 -6.40305,4.55e-4 z M 40.287391,42.16859 c 3.449077,-0.782105 5.878067,-3.272587 6.742776,-6.913475 0.129585,-0.545621 0.129654,-0.554124 0.0059,-0.720472 -0.100939,-0.135709 -0.186929,-0.171417 -0.443672,-0.184238 -1.244013,-0.06213 -2.645941,-0.326445 -3.755955,-0.708146 -0.944554,-0.324803 -2.611486,-1.162646 -3.517677,-1.768073 -1.559467,-1.041882 -3.098536,-2.421197 -4.254653,-3.813026 -0.296963,-0.357508 -0.564417,-0.659449 -0.594341,-0.67098 -0.08085,-0.03115 -1.218865,1.533641 -1.740181,2.392785 -0.885797,1.459819 -1.465871,2.763141 -1.795374,4.033881 -0.258134,0.995503 -0.303126,2.406926 -0.10417,3.267907 0.26046,1.127146 0.764942,1.971295 1.736947,2.906426 1.189102,1.143992 2.794241,1.952747 4.379216,2.206485 0.268131,0.04292 0.531387,0.08857 0.585013,0.101433 0.255538,0.0613 2.347039,-0.03774 2.756143,-0.130507 z"
     id="path878"
     inkscape:connector-curvature="0" /><path
     style="opacity:1;vector-effect:none;fill:#000000;fill-opacity:1;stroke:#ffffff;stroke-width:0.06500153;stroke-linecap:butt;stroke-linejoin:miter;stroke-miterlimit:4;stroke-dasharray:none;stroke-dashoffset:0;stroke-opacity:1"
     d="m 52.185458,3.5045489 c -0.01763,-0.045945 -0.02402,-0.594395 -0.01421,-1.2187787 l 0.01785,-1.1352431 0.552513,0.00304 c 0.679299,0.00373 0.842095,0.044267 1.062345,0.2645177 0.245611,0.2456109 0.246254,0.7136749 0.0013,0.958612 -0.09425,0.094252 -0.211255,0.1713677 -0.260006,0.1713677 -0.128178,0 -0.116309,0.031388 0.172911,0.457284 0.386269,0.5688059 0.387535,0.5827404 0.05296,0.5827404 -0.281601,0 -0.28723,-0.00449 -0.569918,-0.4550107 -0.185061,-0.2949278 -0.32757,-0.4550107 -0.40506,-0.4550107 -0.104682,0 -0.119552,0.056594 -0.119552,0.4550107 v 0.4550107 h -0.229546 c -0.127019,0 -0.243862,-0.037311 -0.261601,-0.083535 z m 1.183356,-1.4195438 c 0.108762,-0.090265 0.113417,-0.2653554 0.0098,-0.3689647 -0.0429,-0.042901 -0.218405,-0.078002 -0.390009,-0.078002 h -0.312007 v 0.3013421 0.3013422 l 0.302199,-0.041421 c 0.16621,-0.022782 0.341714,-0.074215 0.39001,-0.1142967 z"
     id="path880"
     inkscape:connector-curvature="0" /><path
     style="opacity:1;vector-effect:none;fill:#000000;fill-opacity:1;stroke:#ffffff;stroke-width:0.06500153;stroke-linecap:butt;stroke-linejoin:miter;stroke-miterlimit:4;stroke-dasharray:none;stroke-dashoffset:0;stroke-opacity:1"
     d="M 52.384098,4.6019689 C 51.705901,4.3869204 51.167907,3.9272237 50.909946,3.342359 50.724471,2.9218387 50.679804,2.1571469 50.813793,1.6962414 c 0.297483,-1.02330487 1.172915,-1.65126223 2.285322,-1.63928724 1.158727,0.01247362 2.052969,0.78716136 2.252624,1.95146354 0.244314,1.4247266 -0.853191,2.6964385 -2.313173,2.6803444 -0.216954,-0.00239 -0.511465,-0.041448 -0.654468,-0.086793 z M 53.781631,4.0381111 C 54.589381,3.6732323 55.005518,2.725141 54.754541,1.8215178 54.414386,0.59681755 52.844168,0.13890057 51.883728,0.98431316 51.269087,1.5253422 51.095724,2.4935913 51.479841,3.2400577 c 0.209518,0.4071616 0.529858,0.7011958 0.912544,0.8376072 0.381768,0.136084 1.042044,0.117285 1.389246,-0.039554 z"
     id="path882"
     inkscape:connector-curvature="0" /><path
     style="opacity:1;vector-effect:none;fill:#1f1f1f;fill-opacity:1;stroke:#ffffff;stroke-width:0.06500153;stroke-linecap:butt;stroke-linejoin:miter;stroke-miterlimit:4;stroke-dasharray:none;stroke-dashoffset:0;stroke-opacity:1"
     d="M 24.758447,52.963803 C 22.097724,52.734628 18.67268,51.777124 15.983241,50.51061 13.757193,49.462317 11.294511,47.812383 9.2968784,46.030919 8.9620828,45.732353 8.6637999,45.488071 8.6340273,45.488071 c -0.029773,0 -1.1306315,0.943949 -2.446353,2.097664 -2.8802733,2.525623 -3.2999654,2.869707 -3.4364189,2.817344 -0.07206,-0.02765 -0.089012,-0.08257 -0.057358,-0.185826 0.024714,-0.08062 0.8486869,-1.746812 1.8310509,-3.702659 L 6.3110649,42.958509 5.8041734,42.224493 C 4.6142436,40.501387 4.4341476,40.229946 3.9507105,39.430952 1.9216297,36.077414 0.65547373,32.488408 0.14827019,28.652675 0.01878116,27.673412 8.1025425e-4,24.638179 0.11825121,23.582555 0.46510677,20.464828 1.3555376,17.516458 2.9231974,14.294896 L 3.5679483,12.969923 V 10.80795 c 0,-2.3522665 -0.053205,-3.1143984 -0.2970985,-4.255796 C 2.8275707,4.4776547 2.1218673,3.0393571 0.95596573,1.8341775 0.62956392,1.4967795 0.37440277,1.2103563 0.38894097,1.1976815 0.64537086,0.97411862 2.0473572,0.87084009 4.1854629,0.91800735 6.3483021,0.96572023 7.6276105,1.1261846 9.4889644,1.5832287 13.324642,2.525056 17.3872,4.6122907 20.009747,6.9885281 l 0.35392,0.3206792 0.68775,-0.3040239 C 22.054433,6.5617937 24.752098,5.5121919 26.223009,4.9930304 31.31052,3.1973809 37.32747,1.6857547 43.023878,0.77218187 c 2.733675,-0.4384188 5.655133,-0.80848787 5.655133,-0.71635139 0,0.23552296 -0.478329,2.48464382 -0.780249,3.66875692 -0.818161,3.2087921 -2.011804,6.5612976 -3.308658,9.2928096 -0.207842,0.437769 -0.405696,0.813125 -0.439676,0.834126 -0.03398,0.021 -1.434818,0.302256 -3.112975,0.625011 -4.199283,0.807637 -7.309738,1.427076 -7.503799,1.494363 -0.119488,0.04143 -0.136694,0.06604 -0.065,0.09298 0.05363,0.02015 1.165152,0.285142 2.470058,0.588867 4.444613,1.034513 5.492494,1.280187 5.734345,1.344406 l 0.241716,0.06418 -0.280044,0.371803 c -1.642501,2.180676 -3.748987,5.112801 -3.722572,5.181637 0.0446,0.116232 0.73976,0.499121 1.341633,0.738965 1.01629,0.404987 2.180864,0.584636 4.127597,0.636731 1.549821,0.04147 2.692656,-0.02358 4.3191,-0.245872 l 1.00402,-0.137221 0.101006,0.131637 c 0.05555,0.0724 0.358523,0.551144 0.673268,1.063875 0.802138,1.306712 0.98733,1.549752 1.180877,1.549752 0.232358,0 0.368683,-0.177703 1.022261,-1.332531 0.841517,-1.486907 0.729674,-1.370441 1.366077,-1.422554 0.710426,-0.05818 1.933462,-0.266194 2.781184,-0.473035 1.99985,-0.487957 4.313716,-1.633321 5.91514,-2.927994 0.588549,-0.475813 2.005151,-1.918587 2.407163,-2.451636 l 0.2904,-0.385056 0.01764,1.325985 c 0.02001,1.504132 -0.07294,2.417737 -0.373104,3.66695 -0.466023,1.939506 -1.254839,3.641817 -2.389682,5.157074 -0.496852,0.663404 -1.85429,2.053381 -2.584419,2.64637 -1.280841,1.040262 -3.12419,2.097699 -4.823898,2.767229 -0.611059,0.240702 -0.734722,0.313008 -0.768531,0.449363 -0.09959,0.401675 -0.722592,1.964935 -1.157026,2.903273 -1.339419,2.893026 -2.964172,5.24849 -5.209955,7.553068 -4.290506,4.40283 -9.418605,7.03636 -15.601803,8.012291 -0.729249,0.115103 -1.210141,0.136264 -3.510082,0.154463 -1.465785,0.0116 -2.942945,-0.0028 -3.282578,-0.0321 z M 39.787563,42.23639 c 1.120874,-0.11062 2.40149,-0.598884 3.514987,-1.340169 1.781265,-1.185836 3.100555,-3.123774 3.68507,-5.413093 0.255996,-1.002638 0.188946,-1.102728 -0.79436,-1.185777 -1.870906,-0.158014 -3.415624,-0.596375 -5.122718,-1.45373 -0.641321,-0.322091 -1.604091,-0.879201 -1.946756,-1.126497 -1.654025,-1.193687 -2.850919,-2.276245 -3.982717,-3.602258 l -0.653222,-0.765315 -0.147186,0.138275 c -0.20107,0.188895 -1.098769,1.447922 -1.586492,2.225061 -0.894397,1.425135 -1.740507,3.439788 -1.957064,4.659922 -0.04785,0.269627 -0.08433,0.908755 -0.0816,1.430034 0.0056,1.068785 0.124476,1.645789 0.502269,2.437557 0.69676,1.460254 2.497216,2.955706 4.363432,3.624251 1.247542,0.446914 2.406669,0.549353 4.206361,0.371739 z"
     id="path2079"
     inkscape:connector-curvature="0" /><path
     style="opacity:1;vector-effect:none;fill:#1f1f1f;fill-opacity:1;stroke:#ffffff;stroke-width:0.06500153;stroke-linecap:butt;stroke-linejoin:miter;stroke-miterlimit:4;stroke-dasharray:none;stroke-dashoffset:0;stroke-opacity:1"
     d="m 52.232428,3.5187492 c -0.02383,-0.023834 -0.04333,-0.5649716 -0.04333,-1.2025284 V 1.1570269 l 0.471261,0.00155 c 0.935502,0.00308 1.28378,0.204031 1.28378,0.7407278 0,0.2158798 -0.03925,0.3192703 -0.171368,0.4513859 -0.09425,0.094252 -0.196629,0.1713677 -0.227505,0.1713677 -0.108974,0 -0.05332,0.1529221 0.203868,0.560146 0.143004,0.2264298 0.260006,0.4270329 0.260006,0.4457845 0,0.073747 -0.450828,0.028928 -0.531619,-0.052851 -0.04724,-0.04782 -0.18819,-0.2375941 -0.313218,-0.4217213 -0.371597,-0.5472488 -0.517484,-0.5093422 -0.519199,0.1349071 -9.77e-4,0.3668333 -0.0044,0.3737588 -0.185167,0.3737588 -0.101294,0 -0.203671,-0.0195 -0.227505,-0.043334 z m 1.110443,-1.426945 c 0.30752,-0.1950299 0.141086,-0.4262178 -0.335276,-0.4657214 l -0.363491,-0.030144 v 0.3387703 0.3387703 l 0.276257,-0.044461 c 0.151941,-0.024453 0.34207,-0.0862 0.42251,-0.1372142 z"
     id="path2081"
     inkscape:connector-curvature="0" /></svg>