<?xml version="1.0" encoding="UTF-8" standalone="no"?>
<!-- Created with Inkscape (http://www.inkscape.org/) -->

<svg
   xmlns:dc="http://purl.org/dc/elements/1.1/"
   xmlns:cc="http://creativecommons.org/ns#"
   xmlns:rdf="http://www.w3.org/1999/02/22-rdf-syntax-ns#"
   xmlns:svg="http://www.w3.org/2000/svg"
   xmlns="http://www.w3.org/2000/svg"
   xmlns:sodipodi="http://sodipodi.sourceforge.net/DTD/sodipodi-0.dtd"
   xmlns:inkscape="http://www.inkscape.org/namespaces/inkscape"
   width="191.23189mm"
   height="191.25154mm"
   viewBox="0 0 191.23189 191.25154"
   version="1.1"
   id="svg1070"
   sodipodi:docname="guacamole.svg"
   inkscape:version="0.92.4 5da689c313, 2019-01-14">
  <defs
     id="defs1064" />
  <sodipodi:namedview
     id="base"
     pagecolor="#ffffff"
     bordercolor="#666666"
     borderopacity="1.0"
     inkscape:pageopacity="0.0"
     inkscape:pageshadow="2"
     inkscape:zoom="0.49497475"
     inkscape:cx="-86.40741"
     inkscape:cy="511.83969"
     inkscape:document-units="mm"
     inkscape:current-layer="g1885"
     showgrid="false"
     inkscape:window-width="1920"
     inkscape:window-height="1023"
     inkscape:window-x="1920"
     inkscape:window-y="27"
     inkscape:window-maximized="1"
     fit-margin-top="0"
     fit-margin-left="0"
     fit-margin-right="0"
     fit-margin-bottom="0" />
  <metadata
     id="metadata1067">
    <rdf:RDF>
      <cc:Work
         rdf:about="">
        <dc:format>image/svg+xml</dc:format>
        <dc:type
           rdf:resource="http://purl.org/dc/dcmitype/StillImage" />
        <dc:title></dc:title>
      </cc:Work>
    </rdf:RDF>
  </metadata>
  <g
     inkscape:label="Layer 1"
     inkscape:groupmode="layer"
     id="layer1"
     transform="translate(-10.757329,-86.45816)">
    <g
       id="g1885"
       transform="translate(1.6036218,-4.2763119)">
      <path
         style="fill:#d3b542;stroke-width:0.29882354"
         d="m 94.609654,281.51673 c -32.204758,-2.8439 -62.081459,-23.97321 -76.335811,-53.98599 -6.299032,-13.26272 -9.1201354,-26.0009 -9.1201354,-41.18032 0,-15.17942 2.8211034,-27.91761 9.1201354,-41.18033 9.361527,-19.71085 25.604633,-35.95396 45.315488,-45.315483 13.262718,-6.299032 26.000903,-9.120135 41.180319,-9.120135 15.17942,0 27.91761,2.821103 41.18033,9.120135 19.71085,9.361523 35.95396,25.604633 45.31549,45.315483 6.29903,13.26272 9.12013,26.00091 9.12013,41.18033 0,15.17942 -2.8211,27.9176 -9.12013,41.18032 -9.36153,19.71086 -25.60464,35.95396 -45.31549,45.31549 -15.92321,7.56261 -32.39144,10.34381 -51.340326,8.6705 z m 23.564936,-35.55291 c 21.16445,-2.64816 37.917,-12.50882 48.40877,-28.49375 2.46408,-3.7542 2.45816,-4.04038 -0.0448,-2.1602 -9.84128,7.39276 -26.93327,13.46679 -44.17775,15.69958 -24.215483,3.13539 -49.472602,-0.58672 -68.839434,-10.14479 -5.040105,-2.48742 -8.881218,-4.83636 -11.546177,-7.06075 -0.762398,-0.63636 -1.470173,-1.15702 -1.572834,-1.15702 -0.581167,0 2.63005,5.48836 5.15779,8.81529 9.664742,12.72045 24.007188,20.69694 42.66758,23.72941 3.159616,0.51347 7.142459,0.9421 12.507765,1.3461 3.04592,0.22935 13.86496,-0.12668 17.43905,-0.57387 z m -2.27024,-30.77355 c 16.15179,-1.42486 30.78818,-5.26668 44.2428,-11.61305 6.12887,-2.89091 12.73939,-7.09474 15.97873,-10.16136 1.19711,-1.13327 1.57029,-2.34592 2.72608,-8.85838 0.48128,-2.71183 1.156,-5.70304 1.49938,-6.64713 1.12413,-3.09065 1.56399,-12.13071 0.77211,-15.86824 -0.72577,-3.42544 -3.76628,-7.97669 -6.20706,-9.29113 l -1.0413,-0.56078 -1.83154,1.40934 c -1.00734,0.77513 -1.83154,1.46103 -1.83154,1.5242 0,0.0632 0.26211,0.55958 0.58247,1.10312 1.66703,2.82838 2.00038,8.21815 0.75259,12.16811 -2.95729,9.36149 -15.31917,17.98369 -32.57171,22.71823 -10.90406,2.99235 -20.43575,4.21361 -33.05754,4.23553 -12.094341,0.021 -20.911844,-1.00257 -31.220886,-3.62427 -22.192238,-5.64372 -35.69662,-16.40817 -35.662158,-28.42659 0.0091,-3.17157 0.939973,-5.51518 4.037907,-10.16599 1.568211,-2.35429 3.050684,-5.01665 3.74884,-6.7325 1.321822,-3.24862 1.388295,-3.21587 -2.177524,-1.07298 -6.246481,3.75385 -11.534377,8.79285 -13.648837,13.0064 -1.503498,2.99607 -1.827865,4.63061 -1.827865,9.2109 0,4.99254 0.433654,7.83663 1.523448,9.99142 0.755892,1.49459 0.975539,2.4419 1.319947,5.69278 0.863753,8.153 0.72952,7.74144 3.361236,10.30563 9.866885,9.61373 33.247252,18.76642 54.157725,21.20107 8.466194,0.98574 18.417107,1.15766 26.374697,0.45567 z"
         id="path1891"
         inkscape:connector-curvature="0" />
      <path
         style="fill:#578b34;stroke-width:0.29882354"
         d="m 98.195536,281.79984 c -0.575235,-0.0654 -2.525059,-0.26378 -4.332941,-0.44083 -4.489247,-0.43963 -11.432093,-1.84597 -16.285884,-3.29886 C 65.856365,274.55189 55.56559,269.23493 45.602592,261.53999 41.565306,258.42179 32.698282,249.55477 29.580079,245.51748 18.696576,231.42609 12.177701,215.87017 9.8425083,198.41793 c -0.7217537,-5.39407 -0.7217537,-18.74095 0,-24.13503 2.3351927,-17.45223 8.8540677,-33.00815 19.7375707,-47.09954 3.118203,-4.03729 11.985227,-12.90431 16.022513,-16.02252 14.091395,-10.8835 29.647312,-17.402375 47.099545,-19.737568 5.394079,-0.721753 18.740953,-0.721753 24.135033,0 17.45223,2.335193 33.00815,8.854068 47.09955,19.737568 4.03728,3.11821 12.90431,11.98523 16.02251,16.02252 10.8835,14.09139 17.40238,29.64731 19.73757,47.09954 0.72175,5.39408 0.72175,18.74096 0,24.13503 -2.33519,17.45224 -8.85407,33.00816 -19.73757,47.09955 -3.1182,4.03729 -11.98523,12.90431 -16.02251,16.02251 -14.05068,10.85206 -29.84926,17.48226 -46.94251,19.7004 -3.48187,0.45183 -16.37169,0.83543 -18.798674,0.55945 z m 22.262354,-35.96668 c 8.31962,-1.31783 14.96004,-3.37145 21.84981,-6.7573 8.37992,-4.11815 15.80644,-10.15799 21.54612,-17.52302 2.34405,-3.00785 5.32411,-7.64905 5.07274,-7.90042 -0.0947,-0.0947 -0.96777,0.44012 -1.94023,1.18842 -9.41626,7.24565 -25.46908,13.17409 -42.49432,15.69353 -13.06125,1.93283 -27.88086,1.82856 -40.324438,-0.28371 -17.195152,-2.91885 -32.700263,-9.00986 -42.001451,-16.49981 -1.150471,-0.92644 -2.133239,-1.56388 -2.183931,-1.41652 -0.131426,0.38203 0.95025,2.4175 2.847857,5.35903 10.152521,15.73768 25.549222,24.81308 47.446665,27.96683 5.914358,0.85181 8.847574,1.00624 17.481178,0.92036 7.04176,-0.0701 9.24089,-0.19947 12.7,-0.74739 z m -8.96471,-30.2059 c 12.41931,-0.66412 24.21751,-2.86025 35.41059,-6.59139 12.57291,-4.19108 24.35226,-10.50671 29.31219,-15.71604 1.51595,-1.59218 1.7936,-2.52382 2.96758,-9.95765 0.29848,-1.89006 0.77172,-3.97435 1.05164,-4.63176 0.9038,-2.12267 1.31091,-5.49095 1.3217,-10.93538 0.0114,-5.76667 -0.25361,-7.14115 -1.93044,-10.01112 -1.0029,-1.7165 -3.84451,-4.78727 -4.96761,-5.36823 -0.73536,-0.38038 -0.89319,-0.32263 -2.61471,0.95665 -1.00766,0.7488 -1.83211,1.50751 -1.83211,1.68601 0,0.1785 0.27218,0.8868 0.60484,1.57399 0.73679,1.52199 1.47655,4.88308 1.47655,6.70866 0,12.0931 -14.23663,23.10914 -36.89433,28.54817 -28.11619,6.74934 -61.818394,3.21141 -81.59858,-8.56592 -9.449763,-5.6265 -14.570684,-12.59262 -14.57946,-19.83283 -0.0046,-3.76479 0.556379,-5.15583 4.398327,-10.90706 2.32107,-3.47455 5.038168,-9.46419 4.140827,-9.12815 -1.354268,0.50714 -5.167896,2.89854 -7.93158,4.97361 -5.102055,3.83081 -8.706723,8.19477 -10.041302,12.1564 -0.533161,1.58267 -0.620005,2.56856 -0.620005,7.03851 0,5.96376 0.251799,7.70743 1.474438,10.21022 0.703866,1.44084 0.941766,2.47329 1.211417,5.2574 0.18455,1.90545 0.512987,4.57265 0.72986,5.92711 0.364175,2.27442 0.494243,2.5664 1.701653,3.81985 0.719036,0.74646 2.631046,2.35095 4.248912,3.56554 13.850956,10.39839 37.250982,18.01458 58.993679,19.20115 6.481664,0.35373 7.730204,0.35572 13.965924,0.0223 z m 45.62292,-62.70847 c 9.37551,-5.33704 15.12365,-9.49887 17.28162,-12.51244 0.65621,-0.91639 1.19311,-1.95625 1.19311,-2.31079 0,-3.39607 -18.73489,-14.53969 -22.71313,-13.50991 -0.94453,0.2445 -2.4427,2.55908 -4.58549,7.08434 -1.34704,2.84475 -4.67549,11.2145 -4.67549,11.75703 0,0.0849 0.67776,0.52322 1.50614,0.97408 1.32584,0.72161 1.6301,1.08095 2.54152,3.00159 0.84505,1.78076 1.24791,2.29026 2.19156,2.77168 1.27994,0.65298 2.55169,2.02426 3.26546,3.52105 0.25695,0.53884 0.56668,0.9797 0.68828,0.9797 0.1216,0 1.60948,-0.79035 3.30642,-1.75633 z"
         id="path1889"
         inkscape:connector-curvature="0" />
      <path
         style="fill:#030403;stroke-width:0.29882354"
         d="m 99.39083,281.68014 c -5.569001,-0.43916 -12.570201,-1.57552 -17.780001,-2.88585 -27.148666,-6.82827 -49.855394,-25.14412 -62.150999,-50.13266 -4.847755,-9.85217 -7.687546,-18.95001 -8.962988,-28.71474 -0.257608,-1.97224 -0.6227799,-4.25824 -0.8114927,-5.08 -0.4570864,-1.99042 -0.4570864,-15.04252 0,-17.03294 0.1887128,-0.82177 0.5538847,-3.10777 0.8114927,-5.08 1.275442,-9.76474 4.115233,-18.86258 8.962988,-28.71474 9.249096,-18.79708 24.201538,-33.74952 42.998615,-42.99862 9.852165,-4.847751 18.950006,-7.687542 28.714738,-8.962984 1.972235,-0.257608 4.258235,-0.62278 5.08,-0.811493 1.990419,-0.457086 15.042527,-0.457086 17.032947,0 0.82176,0.188713 3.10776,0.553885 5.08,0.811493 9.76473,1.275442 18.86257,4.115233 28.71473,8.962984 18.79708,9.2491 33.74952,24.20154 42.99862,42.99862 4.84775,9.85216 7.68754,18.95 8.96299,28.71474 0.2576,1.97223 0.62278,4.25823 0.81149,5.08 0.20615,0.89769 0.34311,4.2973 0.34311,8.51647 0,4.21917 -0.13696,7.61877 -0.34311,8.51647 -0.18871,0.82176 -0.55389,3.10776 -0.81149,5.08 -1.27545,9.76473 -4.11524,18.86257 -8.96299,28.71474 -9.2491,18.79707 -24.20154,33.74952 -42.99862,42.99861 -9.85216,4.84776 -18.95,7.68755 -28.71473,8.96299 -1.97224,0.25761 -4.191,0.59459 -4.93059,0.74886 -1.85836,0.38761 -10.60343,0.57942 -14.04471,0.30805 z m 12.34036,-34.67607 c 5.93124,-0.32888 9.75998,-0.83782 14.85258,-1.97428 17.30809,-3.86247 31.41895,-13.48097 40.74238,-27.77154 3.16561,-4.85212 3.21836,-5.6634 0.21505,-3.30757 -9.03231,7.085 -23.96531,12.97773 -39.76213,15.69058 -8.60361,1.47753 -11.31703,1.67915 -22.56118,1.67639 -8.41486,-0.002 -11.646072,-0.11523 -14.837131,-0.51966 -7.935256,-1.00569 -16.830659,-2.9106 -23.412284,-5.01363 -9.963309,-3.18358 -20.160277,-8.40265 -25.445924,-13.02388 -1.687442,-1.47532 -2.494077,-1.92908 -2.494077,-1.40301 0,0.37602 2.138856,4.40326 3.382784,6.36942 11.414835,18.04242 31.086596,27.96279 58.025452,29.26196 2.62965,0.12682 5.05012,0.24848 5.37883,0.27034 0.3287,0.0219 2.99075,-0.0929 5.91565,-0.25512 z m 1.85376,-31.07903 c 14.32076,-1.04511 27.61301,-4.02693 40.19177,-9.01612 9.34664,-3.70722 18.88783,-9.2802 22.80188,-13.31851 1.32799,-1.37015 1.68057,-2.51361 2.74648,-8.90709 0.39844,-2.38989 1.06887,-5.34317 1.48984,-6.56285 0.6034,-1.74822 0.83046,-3.21495 1.07272,-6.9297 0.46313,-7.1012 0.0542,-10.02741 -1.88242,-13.47013 -1.1061,-1.96632 -3.7296,-4.83532 -5.09293,-5.56952 l -1.02275,-0.55079 -1.76406,1.27865 c -2.51551,1.82333 -2.59402,1.95626 -1.92733,3.26308 1.05843,2.07469 1.58993,4.54978 1.5764,7.34088 -0.0243,5.01872 -1.76486,8.67354 -6.34372,13.32072 -17.22269,17.47966 -63.28032,23.5135 -96.790987,12.68022 -15.375424,-4.97054 -25.60223,-12.65988 -28.309888,-21.28568 -0.672628,-2.14278 -0.75594,-2.84394 -0.639109,-5.37882 0.164978,-3.57962 0.700197,-4.87456 4.071659,-9.85122 1.312469,-1.93735 2.806733,-4.5818 3.32059,-5.87657 0.513857,-1.29477 1.130052,-2.73269 1.369323,-3.19539 0.685283,-1.32519 0.04469,-1.32941 -2.329703,-0.0153 -5.022638,2.77974 -10.293879,6.97795 -13.075806,10.41406 -3.730793,4.60809 -4.699748,8.03489 -4.349064,15.38087 0.213378,4.46974 0.690023,6.795 1.785033,8.70809 0.525073,0.91736 0.761771,1.90838 0.903538,3.78298 0.3315,4.38348 1.096328,8.76152 1.705387,9.76198 0.797222,1.30955 4.89895,4.72111 8.476671,7.05037 18.51739,12.05565 47.04449,18.76821 72.016476,16.94579 z m -0.44824,-28.38646 c 13.87618,-0.85325 26.24047,-3.67752 35.61807,-8.13593 4.72498,-2.24641 7.42903,-4.09401 10.58094,-7.22963 3.29834,-3.2813 4.55723,-5.59175 4.77452,-8.7627 0.15337,-2.23813 -0.57469,-4.9377 -1.36882,-5.07541 -0.35998,-0.0624 -7.16623,3.65232 -12.16786,6.64102 -0.52909,0.31616 -1.03676,0.50006 -1.12815,0.40867 -0.0914,-0.0914 -0.34896,-1.29538 -0.57238,-2.67553 -0.56559,-3.49389 -1.07471,-4.55294 -2.74576,-5.71156 -2.58018,-1.78897 -3.10576,-2.36401 -4.15551,-4.54653 -0.92283,-1.91863 -1.18574,-2.22305 -2.29689,-2.65953 -2.06343,-0.81053 -4.42521,-2.37113 -4.42521,-2.92404 0,-0.57063 1.90144,-5.99061 3.10219,-8.8427 0.43038,-1.02225 0.78251,-1.91241 0.78251,-1.97814 0,-0.29123 -6.62168,-5.02887 -7.60013,-5.4377 -1.27088,-0.53101 -5.74784,-1.0137 -9.58222,-1.03314 -3.76918,-0.0191 -6.37813,-0.44672 -10.01059,-1.64079 -5.01839,-1.64967 -5.28515,-1.67817 -9.67583,-1.03375 -3.460466,0.50789 -4.087924,0.69295 -5.55443,1.6382 -3.893644,2.50969 -6.992375,3.41152 -11.751164,3.41995 -1.609371,0.003 -3.950191,0.21672 -5.201822,0.47525 -4.063504,0.83934 -5.250703,1.44754 -8.199667,4.20067 -3.734963,3.48693 -6.18606,5.13059 -10.63594,7.13224 -4.688736,2.10909 -5.211578,2.47189 -5.896867,4.09176 -1.577786,3.72953 -2.329246,5.13572 -4.149204,7.76428 -2.919196,4.2162 -3.604269,5.85818 -3.371865,8.08169 0.573379,5.48581 6.503019,11.51854 15.487032,15.75629 13.022874,6.14286 31.969506,9.19467 50.145047,8.07706 z m 49.10477,-37.17717 c 7.51847,-4.59635 11.95922,-8.25547 13.29463,-10.95458 0.69664,-1.40803 0.60634,-1.91944 -0.59658,-3.37879 -2.96044,-3.59154 -14.66235,-10.49863 -19.80866,-11.69214 -2.38127,-0.55226 -2.85511,-0.36185 -4.28596,1.72228 -2.20234,3.20787 -7.52702,15.49449 -7.52702,17.36849 0,0.24943 0.67188,0.81918 1.49306,1.26613 1.30335,0.70937 1.62129,1.08278 2.50225,2.93875 0.85314,1.79737 1.24573,2.27317 2.539,3.07711 0.95397,0.59302 1.86406,1.4904 2.41781,2.38402 1.46797,2.369 1.30689,2.31968 3.54048,1.08401 1.10019,-0.60865 3.99414,-2.32553 6.43099,-3.81528 z"
         id="path1887"
         inkscape:connector-curvature="0" />
      <path
         style="opacity:1;vector-effect:none;fill:#ff0000;fill-opacity:0;stroke:#ffffff;stroke-width:2.02030516;stroke-linecap:butt;stroke-linejoin:miter;stroke-miterlimit:4;stroke-dasharray:none;stroke-dashoffset:0;stroke-opacity:1"
         d="M 317.24955,471.86493 C 234.55891,463.38903 148.87157,432.37734 103.259,394.41818 90.103584,383.47014 88.094759,379.16638 85.825757,357.06884 c -0.684576,-6.66701 -3.539219,-19.59011 -6.343652,-28.718 -4.504285,-14.66058 -5.01083,-19.37308 -4.343247,-40.4061 0.692388,-21.81456 1.253855,-24.71465 6.699705,-34.60543 3.29083,-5.97682 12.82699,-17.2491 21.364307,-25.25381 14.44626,-13.54503 38.14472,-29.61061 43.67883,-29.61061 3.55289,0 -5.17923,18.80035 -18.44035,39.70225 -11.87,18.70925 -14.571,28.41362 -12.58217,45.20619 5.08263,42.91484 65.80853,83.68472 150.11582,100.78407 65.43301,13.27124 144.56781,12.42953 207.84819,-2.21075 69.75437,-16.13808 125.33939,-51.07474 137.35182,-86.32931 4.01915,-11.79557 3.88929,-31.36761 -0.28953,-43.63171 l -3.3489,-9.82851 6.80812,-5.68368 c 3.74448,-3.12602 7.70015,-5.68367 8.79041,-5.68367 4.65143,0 22.93222,21.89433 26.13909,31.30594 6.91805,20.30334 3.34369,57.0842 -11.17812,115.02495 -2.3594,9.41379 -9.37157,16.43599 -29.9226,29.96539 -46.89463,30.87227 -116.43533,54.18273 -188.11289,63.05657 -22.49266,2.78465 -82.58524,3.78549 -102.81104,1.71231 z"
         id="path1895"
         inkscape:connector-curvature="0"
         transform="matrix(0.26458333,0,0,0.26458333,9.1537072,90.734472)" />
      <path
         style="opacity:1;vector-effect:none;fill:#ffffff;fill-opacity:1;stroke:#ffffff;stroke-width:2.02030516;stroke-linecap:butt;stroke-linejoin:miter;stroke-miterlimit:4;stroke-dasharray:none;stroke-dashoffset:0;stroke-opacity:1"
         d="M 324.32061,474.00771 C 254.12848,468.35825 172.41779,442.44426 122.78531,410.09217 93.797078,391.19669 84.9644,379.95652 84.925729,361.91335 c -0.0062,-2.89136 -2.511395,-14.71015 -5.567106,-26.26397 -4.622874,-17.47935 -5.542927,-25.07807 -5.478947,-45.25061 0.09524,-30.02835 3.255227,-37.73327 24.054935,-58.65254 14.126689,-14.2079 43.261659,-35.29165 48.768409,-35.29165 5.76511,0 1.53361,11.05389 -14.84947,38.79104 -12.97553,21.96803 -15.35537,29.57807 -14.10827,45.11426 3.54782,44.19835 65.52124,86.08482 152.0271,102.75176 33.59189,6.47209 51.79153,8.00866 94.95434,8.01683 60.03318,0.0113 94.70006,-4.94337 140.77144,-20.11965 52.35637,-17.24661 93.93904,-47.35437 103.893,-75.22333 3.56198,-9.97274 3.49363,-31.81037 -0.13718,-43.87504 -3.34623,-11.11865 -2.47946,-13.01535 9.0521,-19.80803 l 6.36297,-3.74812 10.13949,10.51955 c 15.93307,16.53028 18.86726,24.82381 18.58656,52.53507 -0.17859,17.62627 -1.8008,30.76609 -6.72174,54.44465 -7.15442,34.42569 -8.79206,38.62824 -18.62943,47.80723 -35.11953,32.76911 -120.05708,65.57634 -198.05077,76.49734 -21.0312,2.94488 -87.03731,5.34944 -105.67244,3.84957 z"
         id="path1903"
         inkscape:connector-curvature="0"
         transform="matrix(0.26458333,0,0,0.26458333,9.1537072,90.734472)" />
      <path
         style="opacity:1;vector-effect:none;fill:#ffffff;fill-opacity:1;stroke:#ffffff;stroke-width:2.02030516;stroke-linecap:butt;stroke-linejoin:miter;stroke-miterlimit:4;stroke-dasharray:none;stroke-dashoffset:0;stroke-opacity:1"
         d="m 319.26985,588.28725 c -37.72612,-4.60711 -78.39193,-15.78994 -103.92523,-28.57874 -30.72722,-15.39027 -59.93696,-39.56053 -78.86535,-65.25893 -10.81511,-14.68329 -24.2499,-37.08234 -22.99231,-38.33375 0.39706,-0.39511 6.06742,3.32416 12.6008,8.26505 39.85068,30.1372 89.9005,49.46566 162.87752,62.90077 15.36394,2.82851 30.27671,3.51897 74.75128,3.46098 48.85357,-0.0637 58.48414,-0.62021 79.80206,-4.61138 35.24905,-6.59937 65.74478,-15.10076 92.0372,-25.65749 25.23361,-10.1316 33.82421,-14.6738 55.95014,-29.58308 8.05597,-5.42841 14.64721,-9.01578 14.64721,-7.97194 0,5.28697 -23.21724,35.84159 -40.26973,52.9962 -36.24841,36.46555 -76.91172,57.77872 -130.85053,68.58371 -24.77842,4.96359 -88.94523,7.06359 -115.76306,3.7886 z"
         id="path1905"
         inkscape:connector-curvature="0"
         transform="matrix(0.26458333,0,0,0.26458333,9.1537072,90.734472)" />
    </g>
  </g>
</svg>
