<?xml version="1.0" encoding="UTF-8" standalone="no"?>
<!-- Created with Inkscape (http://www.inkscape.org/) -->

<svg
   xmlns:dc="http://purl.org/dc/elements/1.1/"
   xmlns:cc="http://creativecommons.org/ns#"
   xmlns:rdf="http://www.w3.org/1999/02/22-rdf-syntax-ns#"
   xmlns:svg="http://www.w3.org/2000/svg"
   xmlns="http://www.w3.org/2000/svg"
   xmlns:sodipodi="http://sodipodi.sourceforge.net/DTD/sodipodi-0.dtd"
   xmlns:inkscape="http://www.inkscape.org/namespaces/inkscape"
   version="1.1"
   id="svg5221"
   width="150"
   height="151"
   viewBox="0 0 150 151"
   sodipodi:docname="nest.svg"
   inkscape:version="0.92.4 5da689c313, 2019-01-14">
  <metadata
     id="metadata5227">
    <rdf:RDF>
      <cc:Work
         rdf:about="">
        <dc:format>image/svg+xml</dc:format>
        <dc:type
           rdf:resource="http://purl.org/dc/dcmitype/StillImage" />
        <dc:title></dc:title>
      </cc:Work>
    </rdf:RDF>
  </metadata>
  <defs
     id="defs5225" />
  <sodipodi:namedview
     pagecolor="#ffffff"
     bordercolor="#666666"
     borderopacity="1"
     objecttolerance="10"
     gridtolerance="10"
     guidetolerance="10"
     inkscape:pageopacity="0"
     inkscape:pageshadow="2"
     inkscape:window-width="1920"
     inkscape:window-height="1023"
     id="namedview5223"
     showgrid="false"
     fit-margin-top="0"
     fit-margin-left="0"
     fit-margin-right="0"
     fit-margin-bottom="0"
     inkscape:zoom="1.5629139"
     inkscape:cx="75"
     inkscape:cy="76.13983"
     inkscape:window-x="1920"
     inkscape:window-y="27"
     inkscape:window-maximized="1"
     inkscape:current-layer="svg5221" />
  <g
     id="g5774">
    <path
       style="fill:#ff0000;fill-opacity:1"
       d="m 28.792373,71.661017 2.559322,-38.389831 43.733532,-1.375915 44.842743,1.375915 1.91949,36.470339 -1.27966,49.266945 H 75 l -42.368644,-0.63983 z"
       id="path5778"
       inkscape:connector-curvature="0"
       sodipodi:nodetypes="ccccccccc" />
    <path
       style="fill:#04b4dd"
       d="M 64.106587,149.89347 C 22.418871,143.57624 -6.5533747,102.49497 1.8707159,61.645951 8.9160967,27.482398 34.49885,4.8622434 71.041601,0.48536896 78.329075,-0.38748148 92.820648,2.1346716 102.93975,6.0370099 130.63205,16.71629 150,45.304238 150,75.5 c 0,33.89598 -22.34757,63.38433 -54.86423,72.39516 -8.647841,2.39644 -22.510481,3.28921 -31.029183,1.99831 z M 57.076078,102.75 c 0.0834,-15.620816 0.868437,-19.095079 5.399447,-23.895693 6.97326,-7.388185 17.784929,-7.625509 25.355842,-0.556579 4.872584,4.549511 5.566603,7.26831 5.986588,23.452272 L 94.213704,117 H 99.606852 105 V 94.915971 72.831941 l 4.15447,3.290405 4.15448,3.290405 3.84282,-4.456376 C 119.26532,72.505369 120.97429,70.275 120.94948,70 c -0.0248,-0.275 -3.62359,-3.401691 -7.99729,-6.948201 L 105,56.603598 v -6.85659 -6.85659 l -4.75,0.304791 c -4.060613,0.260555 -4.796579,0.632879 -5.070938,2.565378 -0.294532,2.074586 -0.937759,1.745467 -7.817563,-4 -4.123143,-3.443323 -8.572045,-7.071651 -9.886448,-8.062952 L 75.085227,31.895271 52.792614,50.521252 c -12.260938,10.244289 -22.23825,19.219037 -22.171805,19.943883 0.158537,1.729486 5.605749,8.534798 6.831584,8.534836 0.523816,1.6e-5 2.436316,-1.438246 4.25,-3.196138 L 45,72.607666 V 94.803833 117 h 6 6 l 0.07608,-14.25 z m 28.922368,1 c -0.0012,-10.611565 -0.349717,-13.946717 -1.75,-16.748853 -3.259907,-6.52347 -11.346801,-7.715475 -16.338515,-2.408291 -2.288843,2.433495 -2.426112,3.31202 -2.731976,17.484694 L 64.85591,117 H 75.427955 86 l -0.0016,-13.25 z"
       id="path5776"
       inkscape:connector-curvature="0" />
  </g>
  <path
     style="opacity:1;vector-effect:none;fill:#ffffff;fill-opacity:1;stroke:#ffffff;stroke-width:0.63983053;stroke-linecap:butt;stroke-linejoin:miter;stroke-miterlimit:4;stroke-dasharray:none;stroke-dashoffset:0;stroke-opacity:1"
     d="m 64.860316,103.68453 c 0.226105,-7.302062 0.674958,-14.329892 0.997451,-15.617397 0.648953,-2.590845 4.097724,-6.034081 6.697274,-6.686527 2.421024,-0.607638 6.654229,0.134534 8.531939,1.495831 0.910233,0.659899 2.374778,2.624471 3.254545,4.365715 1.525559,3.019403 1.60997,3.780243 1.824187,16.442378 l 0.224609,13.27649 H 75.419768 64.449216 Z"
     id="path5816"
     inkscape:connector-curvature="0" />
  <path
     style="opacity:1;vector-effect:none;fill:#ffffff;fill-opacity:1;stroke:#ffffff;stroke-width:0.63983053;stroke-linecap:butt;stroke-linejoin:miter;stroke-miterlimit:4;stroke-dasharray:none;stroke-dashoffset:0;stroke-opacity:1"
     d="m 44.672034,95.147487 v -21.81353 l -3.268353,2.93853 c -1.797593,1.616192 -3.558397,2.93853 -3.912898,2.93853 -0.983207,0 -5.471293,-5.14564 -6.360506,-7.292392 -0.773619,-1.867681 -0.705226,-1.976454 3.977938,-6.326498 9.37067,-8.704121 39.703556,-33.83912 40.46217,-33.528514 0.425292,0.174131 4.660229,3.50899 9.410971,7.410797 4.750741,3.901807 8.860782,7.096682 9.13342,7.099722 0.272639,0.0031 0.75365,-0.672898 1.068908,-1.502086 0.604806,-1.590776 3.04144,-2.310147 7.872886,-2.324326 l 2.39936,-0.007 v 6.949485 6.949485 l 7.67797,6.282131 c 4.22288,3.455172 7.67796,6.659081 7.67796,7.119799 0,0.952315 -6.34333,8.619736 -7.42994,8.980843 -0.39144,0.130087 -2.33492,-1.085737 -4.31885,-2.701831 l -3.60714,-2.938354 V 95.171669 116.96106 H 99.812729 94.169527 L 93.464286,102.085 c -0.387883,-8.181833 -1.066118,-15.962963 -1.507188,-17.291399 -1.938857,-5.839543 -8.645647,-10.62307 -15.68659,-11.18825 -3.657813,-0.293614 -4.519111,-0.115098 -8.208994,1.701425 -4.348324,2.140673 -7.237132,5.130522 -9.127132,9.446368 -0.8761,2.000589 -1.124126,5.213229 -1.338072,17.331856 l -0.262627,14.87606 h -6.330824 -6.330825 z"
     id="path5818"
     inkscape:connector-curvature="0" />
</svg>
