<?xml version="1.0" encoding="UTF-8" standalone="no"?>
<!-- Created with Inkscape (http://www.inkscape.org/) -->

<svg
   xmlns:dc="http://purl.org/dc/elements/1.1/"
   xmlns:cc="http://creativecommons.org/ns#"
   xmlns:rdf="http://www.w3.org/1999/02/22-rdf-syntax-ns#"
   xmlns:svg="http://www.w3.org/2000/svg"
   xmlns="http://www.w3.org/2000/svg"
   xmlns:sodipodi="http://sodipodi.sourceforge.net/DTD/sodipodi-0.dtd"
   xmlns:inkscape="http://www.inkscape.org/namespaces/inkscape"
   width="66.145836mm"
   height="66.180145mm"
   viewBox="0 0 66.145836 66.180145"
   version="1.1"
   id="svg8"
   sodipodi:docname="nzbget.svg"
   inkscape:version="0.92.4 5da689c313, 2019-01-14">
  <defs
     id="defs2" />
  <sodipodi:namedview
     id="base"
     pagecolor="#ffffff"
     bordercolor="#666666"
     borderopacity="1.0"
     inkscape:pageopacity="0.0"
     inkscape:pageshadow="2"
     inkscape:zoom="3.959798"
     inkscape:cx="97.679752"
     inkscape:cy="147.42323"
     inkscape:document-units="mm"
     inkscape:current-layer="layer1"
     showgrid="false"
     inkscape:window-width="1920"
     inkscape:window-height="1023"
     inkscape:window-x="1920"
     inkscape:window-y="27"
     inkscape:window-maximized="1"
     fit-margin-top="0"
     fit-margin-left="0"
     fit-margin-right="0"
     fit-margin-bottom="0" />
  <metadata
     id="metadata5">
    <rdf:RDF>
      <cc:Work
         rdf:about="">
        <dc:format>image/svg+xml</dc:format>
        <dc:type
           rdf:resource="http://purl.org/dc/dcmitype/StillImage" />
        <dc:title></dc:title>
      </cc:Work>
    </rdf:RDF>
  </metadata>
  <g
     inkscape:label="Layer 1"
     inkscape:groupmode="layer"
     id="layer1"
     transform="translate(-44.790177,-68.857071)">
    <g
       id="g879"
       transform="translate(-11.339286,-46.869047)">
      <path
         style="fill:#cecfce;stroke-width:0.26458335"
         d="m 84.043006,181.62892 c -6.411276,-0.98831 -13.574496,-4.6563 -18.277201,-9.35901 -4.800007,-4.8 -8.429056,-11.98732 -9.362187,-18.54178 -0.338615,-2.37849 -0.338615,-7.4111 0,-9.78958 0.933131,-6.55446 4.56218,-13.74178 9.362187,-18.54179 4.73549,-4.73549 11.405942,-8.17661 17.887594,-9.22776 12.400508,-2.01104 24.653321,2.91653 32.210541,12.95371 0.76662,1.01819 2.10138,3.28 2.96615,5.02625 2.72792,5.50859 3.61532,9.79439 3.36919,16.27188 -0.11198,2.94694 -0.30723,4.44991 -0.84214,6.48229 -3.15352,11.98191 -12.17049,20.97557 -24.19774,24.13522 -2.125917,0.55849 -3.256021,0.6791 -7.030977,0.75037 -2.473855,0.0467 -5.212292,-0.0252 -6.085417,-0.1598 z m 2.588186,-27.33752 c 1.931101,-0.82284 2.893907,-2.73617 2.863535,-5.69056 -0.04215,-4.10022 -1.303425,-5.85292 -4.211878,-5.85292 -1.051793,0 -1.433145,0.13317 -1.997515,0.69754 -0.383646,0.38364 -0.70492,0.592 -0.713944,0.46302 -0.009,-0.12899 -0.0022,-1.39538 0.0151,-2.8142 l 0.03151,-2.57969 h -0.808854 -0.808854 v 7.9375 7.9375 h 0.661459 c 0.540664,0 0.661458,-0.12922 0.661458,-0.70758 v -0.70758 l 0.595313,0.53915 c 1.325964,1.20088 2.260351,1.39664 3.712665,0.77782 z m -2.811738,-1.52456 c -1.388655,-0.80719 -1.949741,-4.62906 -0.989894,-6.74272 1.138399,-2.50684 3.673285,-2.61916 4.680977,-0.20741 0.475446,1.1379 0.475446,4.36619 0,5.50409 -0.641585,1.53553 -2.371317,2.21318 -3.691083,1.44604 z m -22.133741,-2.22221 c 0,-4.47892 0.262535,-5.43528 1.677246,-6.10991 1.648666,-0.7862 2.961375,0.0524 3.187337,2.03611 0.05684,0.49901 0.116658,2.48488 0.132925,4.41303 l 0.02958,3.50573 h 0.81945 0.819449 l -0.09817,-4.69636 c -0.129715,-6.20559 -0.522746,-6.94531 -3.690201,-6.94531 -1.125911,0 -1.453035,0.12222 -2.12457,0.79375 -0.436562,0.43656 -0.844123,0.79375 -0.905689,0.79375 -0.06157,0 -0.111939,-0.35719 -0.111939,-0.79375 0,-0.67028 -0.102894,-0.79375 -0.661458,-0.79375 h -0.661459 v 5.82083 5.82084 h 0.79375 0.79375 z m 17.197918,3.03609 v -0.80888 l -3.310769,0.0813 c -2.359201,0.0579 -3.278012,-0.004 -3.196799,-0.21429 0.06268,-0.16256 1.492999,-2.15186 3.178477,-4.42067 2.043174,-2.75029 3.064507,-4.35155 3.064507,-4.80456 v -0.67945 l -4.034896,0.073 -4.034896,0.073 -0.08596,0.75086 -0.08596,0.75086 3.062873,-0.0894 c 1.68458,-0.0492 3.062717,-0.054 3.062527,-0.0107 -1.91e-4,0.0433 -1.429097,1.99194 -3.175347,4.3304 -2.339681,3.13313 -3.175,4.45242 -3.175,5.01456 v 0.76284 h 4.365625 4.365626 z"
         id="path891"
         inkscape:connector-curvature="0" />
      <path
         style="fill:#85b376;stroke-width:0.26458335"
         d="m 85.365923,181.74202 c -8.23602,-1.25358 -14.653625,-4.47984 -19.992872,-10.05083 -4.531677,-4.72836 -7.27216,-10.01727 -8.759307,-16.90473 -0.452033,-2.09351 -0.452033,-9.81273 0,-11.90625 1.487147,-6.88746 4.22763,-12.17636 8.759307,-16.90473 4.643859,-4.84541 10.609666,-8.16831 17.214746,-9.58843 3.142848,-0.67573 10.08632,-0.67573 13.229168,0 11.738765,2.52389 21.171525,10.99311 24.832735,22.29613 1.20337,3.71508 1.49331,5.68582 1.49331,10.15016 0,4.46765 -0.28788,6.42138 -1.50097,10.18646 -3.04255,9.4432 -10.26578,17.07244 -19.5636,20.66326 -3.807992,1.47065 -6.429558,1.96892 -10.950017,2.0812 -2.182813,0.0542 -4.325938,0.0442 -4.7625,-0.0222 z m 12.307155,-23.18524 c 2.138217,-1.0838 2.232096,-1.45217 2.331312,-9.14766 l 0.0864,-6.70025 -0.747845,0.0857 c -0.428604,0.0491 -0.763054,0.25509 -0.783471,0.48255 -0.01961,0.21828 -0.04936,0.5024 -0.06615,0.63139 -0.01677,0.12898 -0.341519,-0.0765 -0.721633,-0.4566 -1.905966,-1.90596 -5.348377,-0.56871 -6.172145,2.39766 -0.507211,1.82646 -0.344553,4.5549 0.362014,6.07244 0.758002,1.62801 1.596919,2.24273 3.275137,2.39985 1.01581,0.0951 1.422252,-0.007 2.233919,-0.56147 l 0.992188,-0.67774 v 0.92657 c 0,2.12218 -1.201793,3.5554 -2.981314,3.5554 -0.968434,0 -2.047159,-0.70002 -2.337412,-1.51683 -0.05788,-0.16287 -0.451077,-0.382 -0.873778,-0.48694 -0.764342,-0.18977 -0.76766,-0.18536 -0.606621,0.807 0.398978,2.45862 3.353885,3.53496 6.009405,2.18896 z m -3.27029,-6.05452 c -1.281846,-0.7451 -1.940182,-4.4755 -1.131427,-6.41112 0.437774,-1.04774 1.599528,-2.0203 2.413312,-2.0203 0.813784,0 1.975538,0.97256 2.413312,2.0203 0.470932,1.1271 0.468691,3.8335 -0.0041,4.96508 -0.641586,1.53553 -2.371318,2.21318 -3.691083,1.44604 z m -7.041158,1.5566 c 0.485836,-0.32742 1.18786,-1.18708 1.560055,-1.91034 0.570076,-1.10779 0.676783,-1.67067 0.677145,-3.57187 7.94e-4,-3.62889 -1.356521,-5.73698 -3.871952,-6.01415 -0.93498,-0.10303 -1.343507,0.002 -2.146893,0.55028 l -0.992188,0.67753 v -2.78692 -2.78691 l -0.803376,0.0829 -0.803377,0.0829 -0.05652,8.00365 -0.05652,8.00365 0.727604,-1e-5 c 0.551213,0 0.727604,-0.12829 0.727604,-0.52917 0,-0.29104 0.119063,-0.52917 0.264583,-0.52917 0.145521,0 0.264584,0.0915 0.264584,0.20331 0,0.11181 0.327422,0.4063 0.727604,0.65441 1.043408,0.64692 2.713958,0.58944 3.781645,-0.13011 z m -3.796374,-1.73227 c -0.984372,-1.02746 -1.399293,-3.18108 -0.991411,-5.14584 0.705325,-3.39753 3.391105,-4.08477 4.842188,-1.23902 0.567026,1.11201 0.61849,3.86041 0.09571,5.11159 -0.859827,2.05786 -2.643476,2.63332 -3.94649,1.27327 z m 25.967194,1.56435 c 0.68287,-0.48626 1.89493,-2.2568 1.89493,-2.76807 0,-0.062 -0.36426,-0.16627 -0.80946,-0.23161 -0.67632,-0.0993 -0.8719,0.002 -1.18911,0.61537 -0.52752,1.0201 -1.39255,1.56004 -2.49934,1.56004 -1.57154,0 -2.61251,-1.07934 -2.99831,-3.10885 l -0.16347,-0.8599 h 3.8666 3.86659 l -0.14396,-1.5876 c -0.20167,-2.22405 -1.19566,-3.85624 -2.77344,-4.55417 -3.17059,-1.4025 -6.01925,0.81936 -6.35112,4.95365 -0.24097,3.00204 0.73626,5.35006 2.62797,6.31428 1.23532,0.62966 3.55197,0.46447 4.67212,-0.33314 z m -5.5134,-6.92282 c 0,-1.43527 1.51853,-2.89728 3.00927,-2.89728 0.75854,0 2.18702,1.10902 2.40054,1.8637 0.0805,0.28465 0.21399,0.75567 0.29656,1.04671 0.14364,0.50634 0.0238,0.52917 -2.77812,0.52917 -2.77551,0 -2.92825,-0.0283 -2.92825,-0.5423 z m 13.18617,7.45364 c 0.52545,-0.33306 0.27199,-1.46419 -0.35388,-1.57929 -1.12188,-0.20633 -1.19062,-0.47023 -1.19062,-4.57069 v -3.93636 h 0.79375 c 0.70555,0 0.79375,-0.0882 0.79375,-0.79375 0,-0.70556 -0.0882,-0.79375 -0.79375,-0.79375 h -0.79375 v -2.00239 -2.00239 l -0.79375,0.5652 c -0.71516,0.50924 -0.79375,0.7075 -0.79375,2.00239 0,1.35661 -0.0371,1.43719 -0.66146,1.43719 -0.55857,0 -0.66146,0.12347 -0.66146,0.79375 0,0.67028 0.10289,0.79375 0.66146,0.79375 h 0.66146 v 4.5892 c 0,4.04062 0.0553,4.63742 0.46302,4.99256 0.81495,0.70994 1.99348,0.93275 2.66898,0.50458 z m -55.513195,-3.40561 c 0.0035,-1.85539 0.112591,-3.83143 0.242488,-4.3912 0.336271,-1.4491 1.211331,-2.29047 2.377008,-2.28548 1.930431,0.008 2.136692,0.5681 2.136692,5.79939 v 4.25073 h 0.926042 0.926042 v -4.50642 c 0,-5.0932 -0.215609,-5.99684 -1.637725,-6.86388 -1.448723,-0.88327 -2.982544,-0.67268 -4.381546,0.60157 l -0.595313,0.54222 v -0.70758 c 0,-0.60981 -0.109675,-0.70758 -0.79375,-0.70758 h -0.79375 v 5.82083 5.82084 h 0.79375 0.79375 l 0.0063,-3.37344 z m 17.456189,2.58737 v -0.78607 l -3.409521,-0.0738 -3.409521,-0.0738 3.268369,-4.36563 c 1.867377,-2.49429 3.272167,-4.62081 3.277229,-4.96094 0.0088,-0.59292 -0.0081,-0.59531 -4.224473,-0.59531 h -4.233333 v 0.79375 0.79375 h 2.910416 c 1.60073,0 2.910417,0.0614 2.910417,0.13636 0,0.075 -1.369219,1.9605 -3.042708,4.19 -2.385241,3.17772 -3.042709,4.23451 -3.042709,4.89072 v 0.83709 h 4.497917 4.497917 z"
         id="path889"
         inkscape:connector-curvature="0" />
      <path
         style="fill:#67a154;stroke-width:0.26458335"
         d="m 85.302579,181.63314 c -12.658586,-1.59455 -23.359025,-10.27633 -27.309609,-22.1576 -1.345636,-4.04696 -1.680155,-6.16582 -1.680155,-10.6422 0,-2.88863 0.134927,-4.72681 0.456394,-6.21771 2.912887,-13.50939 12.507807,-23.21827 25.818588,-26.12526 3.538898,-0.77287 9.69027,-0.77287 13.229168,0 13.310785,2.90699 22.905705,12.61587 25.818585,26.12526 0.62874,2.91597 0.62874,9.51944 0,12.43542 -2.90036,13.4513 -12.6201,23.31956 -25.686294,26.07879 -2.828255,0.59726 -7.970861,0.84036 -10.646677,0.5033 z M 97.272173,158.9166 c 1.224394,-0.5651 2.094608,-1.43454 2.495918,-2.49372 0.171865,-0.4536 0.282209,-3.27261 0.282209,-7.20989 v -6.46507 h -0.793752 c -0.613312,0 -0.79375,0.11848 -0.79375,0.52119 0,0.49071 -0.05804,0.48155 -0.992188,-0.15654 -1.900811,-1.29839 -4.492892,-0.44893 -5.598361,1.83466 -1.33142,2.75034 -0.870278,6.5417 1.026351,8.43833 0.918149,0.91815 1.128106,1.00403 2.45468,1.00403 1.050025,0 1.636445,-0.14614 2.123382,-0.52917 0.369998,-0.29104 0.723315,-0.52917 0.785145,-0.52917 0.23096,0 -0.298373,2.95258 -0.592973,3.30756 -0.168685,0.20325 -0.713894,0.50393 -1.211575,0.66818 -1.301332,0.42948 -2.627852,-0.0497 -2.986617,-1.07885 -0.23268,-0.66747 -0.408522,-0.78022 -1.216829,-0.78022 -0.896647,0 -0.935948,0.0371 -0.770382,0.72761 0.411652,1.71679 1.022321,2.33663 3.010617,3.05581 0.76799,0.27779 1.730568,0.16874 2.778125,-0.31474 z m -2.248958,-6.30137 c -1.914962,-0.70002 -2.691453,-4.53291 -1.421183,-7.0152 1.096883,-2.14345 3.866459,-1.5277 4.572939,1.0167 0.960924,3.46078 -0.820272,6.85079 -3.151756,5.9985 z m -7.645898,1.43339 c 2.822771,-1.90133 3.203879,-8.01655 0.653645,-10.48833 -0.764119,-0.74062 -1.177563,-0.92039 -2.338044,-1.01663 -1.237276,-0.1026 -1.513493,-0.0296 -2.257448,0.59636 l -0.847673,0.71327 V 141.05165 138.25 h -0.926041 -0.926042 v 8.0698 8.06979 h 0.926042 c 0.742474,0 0.926041,-0.10251 0.926041,-0.51714 0,-0.4772 0.05016,-0.46698 0.649433,0.13229 0.887172,0.88717 2.857106,0.90805 4.140087,0.0439 z m -3.435681,-1.4134 c -0.892694,-0.62527 -1.353839,-1.95657 -1.353839,-3.90845 0,-2.87818 0.919491,-4.39135 2.668435,-4.39135 1.380757,0 2.256385,1.07376 2.50621,3.07329 0.481338,3.85251 -1.639856,6.7541 -3.820806,5.22651 z m 26.006694,0.98372 c 1.18126,-1.14491 1.71733,-2.35584 1.19054,-2.68932 -0.65285,-0.41329 -1.51863,-0.27343 -1.69217,0.27335 -0.25394,0.80007 -1.68177,1.8637 -2.50185,1.8637 -1.35735,0 -2.9258,-1.76592 -2.9258,-3.29415 v -0.6746 h 3.70417 3.70416 l -0.006,-1.38906 c -0.0141,-3.37443 -2.41232,-5.63226 -5.45753,-5.13809 -2.27818,0.36969 -3.58681,2.31457 -3.75129,5.57515 -0.15759,3.12404 0.53111,4.82108 2.44429,6.02301 0.64789,0.40704 1.18599,0.49507 2.59702,0.42488 1.60338,-0.0798 1.87046,-0.1764 2.69427,-0.97487 z m -5.82536,-6.95884 c 0.20044,-1.00221 1.28127,-2.21654 2.1718,-2.44005 1.43379,-0.35985 3.28053,1.18714 3.28053,2.74807 0,0.51265 -0.15369,0.5423 -2.8112,0.5423 h -2.8112 z m 13.49525,7.77296 c 0.0752,-0.12161 0.0444,-0.56809 -0.0683,-0.99218 -0.14358,-0.54008 -0.39782,-0.79889 -0.84864,-0.8639 -0.35401,-0.0511 -0.73112,-0.22965 -0.83804,-0.39688 -0.10691,-0.16723 -0.19621,-1.99315 -0.19843,-4.0576 l -0.004,-3.75355 0.85989,-0.0829 c 0.71873,-0.0693 0.8599,-0.1915 0.8599,-0.74437 0,-0.55286 -0.14117,-0.67507 -0.8599,-0.74437 l -0.85989,-0.0829 v -1.96761 c 0,-1.08218 -0.0709,-1.96761 -0.1576,-1.96761 -0.0867,0 -0.50339,0.24623 -0.92604,0.54718 -0.68464,0.48751 -0.76845,0.70191 -0.76845,1.96598 0,1.2699 -0.0625,1.42766 -0.59531,1.50334 -0.43607,0.0619 -0.59531,0.26149 -0.59531,0.746 0,0.48452 0.15924,0.68408 0.59531,0.74601 0.58641,0.0833 0.59533,0.14264 0.59679,3.96875 0.002,4.34288 0.26879,5.78024 1.13947,6.13101 0.7484,0.3015 2.49208,0.33131 2.66864,0.0456 z m -55.619584,-4.43261 0.08395,-4.38914 0.742359,-0.63795 c 0.944506,-0.81165 2.292054,-0.84855 2.986947,-0.0818 0.445859,0.49198 0.513672,1.07214 0.587596,5.02708 l 0.08357,4.47092 h 0.924656 0.924656 l -0.08218,-5.02263 -0.08218,-5.02263 -0.818457,-0.81782 c -1.350355,-1.34931 -3.581698,-1.4106 -4.956851,-0.13615 l -0.706984,0.65521 v -0.64882 c 0,-0.56513 -0.119461,-0.64883 -0.926041,-0.64883 H 59.83363 v 5.82083 5.82084 h 1.040527 1.040527 z m 17.149578,3.59539 v -0.79375 h -3.307292 c -1.81901,0 -3.307292,-0.0653 -3.307292,-0.14504 0,-0.0798 1.42875,-2.06797 3.175,-4.41821 1.899232,-2.55614 3.175001,-4.51783 3.175001,-4.88205 v -0.60887 h -4.233334 -4.233333 v 0.78509 0.78508 l 2.927076,0.0748 2.927075,0.0748 -3.184984,4.23334 c -2.245862,2.98509 -3.186953,4.44787 -3.191659,4.96093 l -0.0067,0.72761 h 4.630208 4.630209 z"
         id="path887"
         inkscape:connector-curvature="0" />
      <path
         style="fill:#46d600;stroke-width:0.26458335"
         d="m 85.714067,181.63632 c -14.634345,-1.66359 -26.143296,-12.36731 -28.96015,-26.93394 -0.590859,-3.05547 -0.590859,-8.68261 0,-11.73809 2.59732,-13.43136 12.582712,-23.64619 25.83388,-26.42748 3.882541,-0.8149 9.346627,-0.8149 13.229168,0 13.251235,2.7813 23.226745,12.9854 25.835475,26.42748 0.65757,3.3883 0.58869,8.92931 -0.1552,12.48363 -2.70382,12.91897 -12.83029,23.07266 -25.565547,25.63425 -3.166155,0.63685 -7.447531,0.86905 -10.217626,0.55415 z M 97.69358,158.80278 c 0.784834,-0.41318 1.380633,-0.9971 1.822268,-1.78594 0.640072,-1.14329 0.658652,-1.33271 0.757182,-7.72048 l 0.10102,-6.54844 h -0.955627 c -0.792792,0 -0.955625,0.0942 -0.955625,0.55269 0,0.53186 -0.03067,0.52687 -0.814051,-0.1323 -1.080702,-0.90935 -2.943215,-0.94856 -4.240052,-0.0893 -2.441223,1.61756 -3.103279,6.70835 -1.230315,9.46033 1.384139,2.03374 3.544308,2.60629 5.203918,1.37929 l 0.815917,-0.60324 v 1.0794 c 0,1.21656 -0.560692,2.49456 -1.202479,2.74084 -0.235566,0.0904 -0.935892,0.16436 -1.556279,0.16436 -1.128191,0 -1.737241,-0.39804 -2.074807,-1.35595 -0.191939,-0.54467 -1.777415,-0.81339 -1.961938,-0.33253 -0.18873,0.49182 0.384524,2.08299 0.918485,2.54941 1.566368,1.36824 3.543824,1.60449 5.372383,0.64184 z m -2.510107,-6.24855 c -1.18585,-0.23076 -1.837698,-1.33295 -1.964312,-3.32139 -0.145886,-2.29109 0.09191,-3.3777 0.920517,-4.20631 1.137087,-1.13708 2.897878,-0.85848 3.624567,0.5735 0.931894,1.83636 0.689425,5.32054 -0.440997,6.33692 -0.746461,0.67115 -1.1962,0.80089 -2.139775,0.61728 z m -8.548148,2.00706 c 1.176652,-0.49164 2.483839,-2.05572 2.849393,-3.40937 0.487765,-1.80621 0.202851,-5.16131 -0.552416,-6.50513 -1.229865,-2.18825 -3.853413,-2.88961 -5.530453,-1.47848 l -0.814052,0.68498 V 141.05165 138.25 h -0.929865 -0.929866 l 0.06997,8.13594 0.06997,8.13594 0.747282,0.0856 c 0.577702,0.0662 0.780468,-0.0413 0.89352,-0.4736 0.13093,-0.50067 0.191763,-0.51802 0.581076,-0.1657 1.019736,0.92286 2.259753,1.13029 3.545441,0.59309 z m -2.396162,-1.83896 c -0.99739,-0.56442 -1.445141,-1.47565 -1.585736,-3.22717 -0.17552,-2.1866 0.06878,-3.37693 0.894459,-4.3582 0.71547,-0.85029 1.777875,-1.05405 2.758733,-0.52911 1.831198,0.98002 1.968741,6.39337 0.199748,7.86151 -0.591725,0.49109 -1.639779,0.60803 -2.267204,0.25297 z m 25.246407,1.37637 c 0.87776,-0.54249 1.94181,-2.18961 1.94181,-3.00586 0,-0.28978 -0.26929,-0.40742 -0.93259,-0.40742 -0.72328,0 -0.98369,0.13361 -1.16026,0.59531 -0.32031,0.83756 -1.1162,1.49012 -2.02555,1.66078 -1.49495,0.28055 -3.28993,-1.52316 -3.28993,-3.30592 0,-0.516 0.15599,-0.53767 3.87054,-0.53767 h 3.87055 l -0.1838,-1.38906 c -0.23862,-1.80333 -0.93247,-3.31238 -1.97124,-4.28723 -0.69986,-0.65681 -1.09586,-0.79771 -2.48179,-0.88308 -1.39838,-0.0861 -1.78887,-0.007 -2.5688,0.52322 -1.26612,0.86008 -2.03621,2.09483 -2.40028,3.84856 -0.74449,3.58617 0.70528,6.89808 3.39712,7.76048 1.04736,0.33555 2.90197,0.0659 3.93422,-0.57211 z m -5.46652,-6.86136 c 0,-0.15019 0.16601,-0.67041 0.36893,-1.15605 0.99067,-2.37102 4.03159,-2.36997 4.9333,0.002 0.5297,1.39333 0.4692,1.42754 -2.52411,1.42754 -1.73333,0 -2.77812,-0.1027 -2.77812,-0.27308 z m -42.068753,3.05121 c 0.08477,-2.71275 0.253265,-4.44499 0.469084,-4.82259 0.682713,-1.19446 2.20805,-1.48592 3.271917,-0.62518 0.606823,0.49096 0.627132,0.638 0.712625,5.15938 l 0.088,4.65401 h 0.904186 0.904186 v -4.90793 c 0,-5.42075 -0.163066,-6.12942 -1.57884,-6.86155 -1.201167,-0.62115 -2.945013,-0.51319 -4.07278,0.25213 -0.913281,0.61977 -0.962964,0.6266 -0.962964,0.13229 0,-0.41926 -0.181111,-0.52119 -0.926041,-0.52119 h -0.92604 v 5.77674 c 0,3.1772 0.08502,5.86175 0.188928,5.96566 0.103911,0.10391 0.550395,0.15352 0.992188,0.11024 l 0.803259,-0.0787 z m 17.197917,3.28571 v -1.07991 l -3.307661,0.0877 c -1.819213,0.0483 -3.307495,0.0543 -3.307292,0.0133 2.03e-4,-0.0409 1.429119,-1.97197 3.175369,-4.29124 2.110037,-2.80243 3.175001,-4.44148 3.175001,-4.88655 v -0.6697 h -4.250097 -4.250098 l 0.08291,0.8599 0.08291,0.85989 h 2.825381 2.825381 l -0.596695,0.79375 c -5.126014,6.81886 -5.715525,7.6782 -5.715525,8.33168 0,0.38954 0.07937,0.78763 0.176389,0.88464 0.09701,0.097 2.180607,0.17639 4.630208,0.17639 h 4.45382 z m 38.625556,0.61689 c -0.009,-1.1627 -0.32109,-1.65365 -1.05096,-1.65365 -0.63602,0 -0.74905,-0.12569 -0.89227,-0.99218 -0.0902,-0.54571 -0.16531,-2.39117 -0.16691,-4.10104 l -0.003,-3.10886 h 0.92604 c 0.85254,0 0.92604,-0.063 0.92604,-0.79375 0,-0.73075 -0.0735,-0.79375 -0.92604,-0.79375 h -0.92604 v -2.13013 -2.13013 l -0.92605,0.70632 c -0.8561,0.65299 -0.92604,0.81386 -0.92604,2.13014 0,1.34233 -0.0378,1.4238 -0.66146,1.4238 -0.55856,0 -0.66145,0.12347 -0.66145,0.79375 0,0.66468 0.10478,0.79375 0.6444,0.79375 h 0.6444 l 0.0832,4.65414 c 0.0809,4.52436 0.10062,4.66823 0.70783,5.15938 0.85642,0.69273 3.21354,0.72374 3.20822,0.0422 z"
         id="path885"
         inkscape:connector-curvature="0" />
      <path
         style="fill:#48952e;stroke-width:0.26458335"
         d="m 85.714067,181.63632 c -14.634345,-1.66359 -26.143296,-12.36731 -28.96015,-26.93394 -0.590859,-3.05547 -0.590859,-8.68261 0,-11.73809 2.59732,-13.43136 12.582712,-23.64619 25.83388,-26.42748 3.882541,-0.8149 9.346627,-0.8149 13.229168,0 13.251235,2.7813 23.226745,12.9854 25.835475,26.42748 0.65757,3.3883 0.58869,8.92931 -0.1552,12.48363 -2.70382,12.91897 -12.83029,23.07266 -25.565547,25.63425 -3.166155,0.63685 -7.447531,0.86905 -10.217626,0.55415 z M 97.69358,158.80278 c 0.784834,-0.41318 1.380633,-0.9971 1.822268,-1.78594 0.640072,-1.14329 0.658652,-1.33271 0.757182,-7.72048 l 0.10102,-6.54844 h -0.955627 c -0.792792,0 -0.955625,0.0942 -0.955625,0.55269 0,0.53186 -0.03067,0.52687 -0.814051,-0.1323 -1.080702,-0.90935 -2.943215,-0.94856 -4.240052,-0.0893 -2.441223,1.61756 -3.103279,6.70835 -1.230315,9.46033 1.384139,2.03374 3.544308,2.60629 5.203918,1.37929 l 0.815917,-0.60324 v 1.0794 c 0,1.21656 -0.560692,2.49456 -1.202479,2.74084 -0.235566,0.0904 -0.935892,0.16436 -1.556279,0.16436 -1.128191,0 -1.737241,-0.39804 -2.074807,-1.35595 -0.191939,-0.54467 -1.777415,-0.81339 -1.961938,-0.33253 -0.18873,0.49182 0.384524,2.08299 0.918485,2.54941 1.566368,1.36824 3.543824,1.60449 5.372383,0.64184 z m -2.510107,-6.24855 c -1.18585,-0.23076 -1.837698,-1.33295 -1.964312,-3.32139 -0.145886,-2.29109 0.09191,-3.3777 0.920517,-4.20631 1.137087,-1.13708 2.897878,-0.85848 3.624567,0.5735 0.931894,1.83636 0.689425,5.32054 -0.440997,6.33692 -0.746461,0.67115 -1.1962,0.80089 -2.139775,0.61728 z m -8.548148,2.00706 c 1.176652,-0.49164 2.483839,-2.05572 2.849393,-3.40937 0.487765,-1.80621 0.202851,-5.16131 -0.552416,-6.50513 -1.229865,-2.18825 -3.853413,-2.88961 -5.530453,-1.47848 l -0.814052,0.68498 V 141.05165 138.25 h -0.929865 -0.929866 l 0.06997,8.13594 0.06997,8.13594 0.747282,0.0856 c 0.577702,0.0662 0.780468,-0.0413 0.89352,-0.4736 0.13093,-0.50067 0.191763,-0.51802 0.581076,-0.1657 1.019736,0.92286 2.259753,1.13029 3.545441,0.59309 z m -2.396162,-1.83896 c -0.99739,-0.56442 -1.445141,-1.47565 -1.585736,-3.22717 -0.17552,-2.1866 0.06878,-3.37693 0.894459,-4.3582 0.71547,-0.85029 1.777875,-1.05405 2.758733,-0.52911 1.831198,0.98002 1.968741,6.39337 0.199748,7.86151 -0.591725,0.49109 -1.639779,0.60803 -2.267204,0.25297 z m 25.246407,1.37637 c 0.87776,-0.54249 1.94181,-2.18961 1.94181,-3.00586 0,-0.28978 -0.26929,-0.40742 -0.93259,-0.40742 -0.72328,0 -0.98369,0.13361 -1.16026,0.59531 -0.32031,0.83756 -1.1162,1.49012 -2.02555,1.66078 -1.49495,0.28055 -3.28993,-1.52316 -3.28993,-3.30592 0,-0.516 0.15599,-0.53767 3.87054,-0.53767 h 3.87055 l -0.1838,-1.38906 c -0.23862,-1.80333 -0.93247,-3.31238 -1.97124,-4.28723 -0.69986,-0.65681 -1.09586,-0.79771 -2.48179,-0.88308 -1.39838,-0.0861 -1.78887,-0.007 -2.5688,0.52322 -1.26612,0.86008 -2.03621,2.09483 -2.40028,3.84856 -0.74449,3.58617 0.70528,6.89808 3.39712,7.76048 1.04736,0.33555 2.90197,0.0659 3.93422,-0.57211 z m -5.46652,-6.86136 c 0,-0.15019 0.16601,-0.67041 0.36893,-1.15605 0.99067,-2.37102 4.03159,-2.36997 4.9333,0.002 0.5297,1.39333 0.4692,1.42754 -2.52411,1.42754 -1.73333,0 -2.77812,-0.1027 -2.77812,-0.27308 z m -42.068753,3.05121 c 0.08477,-2.71275 0.253265,-4.44499 0.469084,-4.82259 0.682713,-1.19446 2.20805,-1.48592 3.271917,-0.62518 0.606823,0.49096 0.627132,0.638 0.712625,5.15938 l 0.088,4.65401 h 0.904186 0.904186 v -4.90793 c 0,-5.42075 -0.163066,-6.12942 -1.57884,-6.86155 -1.201167,-0.62115 -2.945013,-0.51319 -4.07278,0.25213 -0.913281,0.61977 -0.962964,0.6266 -0.962964,0.13229 0,-0.41926 -0.181111,-0.52119 -0.926041,-0.52119 h -0.92604 v 5.77674 c 0,3.1772 0.08502,5.86175 0.188928,5.96566 0.103911,0.10391 0.550395,0.15352 0.992188,0.11024 l 0.803259,-0.0787 z m 17.197917,3.28571 v -1.07991 l -3.307661,0.0877 c -1.819213,0.0483 -3.307495,0.0543 -3.307292,0.0133 2.03e-4,-0.0409 1.429119,-1.97197 3.175369,-4.29124 2.110037,-2.80243 3.175001,-4.44148 3.175001,-4.88655 v -0.6697 h -4.250097 -4.250098 l 0.08291,0.8599 0.08291,0.85989 h 2.825381 2.825381 l -0.596695,0.79375 c -5.126014,6.81886 -5.715525,7.6782 -5.715525,8.33168 0,0.38954 0.07937,0.78763 0.176389,0.88464 0.09701,0.097 2.180607,0.17639 4.630208,0.17639 h 4.45382 z m 38.625556,0.61689 c -0.009,-1.1627 -0.32109,-1.65365 -1.05096,-1.65365 -0.63602,0 -0.74905,-0.12569 -0.89227,-0.99218 -0.0902,-0.54571 -0.16531,-2.39117 -0.16691,-4.10104 l -0.003,-3.10886 h 0.92604 c 0.85254,0 0.92604,-0.063 0.92604,-0.79375 0,-0.73075 -0.0735,-0.79375 -0.92604,-0.79375 h -0.92604 v -2.13013 -2.13013 l -0.92605,0.70632 c -0.8561,0.65299 -0.92604,0.81386 -0.92604,2.13014 0,1.34233 -0.0378,1.4238 -0.66146,1.4238 -0.55856,0 -0.66145,0.12347 -0.66145,0.79375 0,0.66468 0.10478,0.79375 0.6444,0.79375 h 0.6444 l 0.0832,4.65414 c 0.0809,4.52436 0.10062,4.66823 0.70783,5.15938 0.85642,0.69273 3.21354,0.72374 3.20822,0.0422 z M 89.815087,142.97667 c 0.317855,-0.16524 0.616464,-0.33277 0.663575,-0.37229 0.04711,-0.0395 -0.10238,-0.43549 -0.332203,-0.87991 -0.61501,-1.1893 -2.418297,-2.15155 -4.03208,-2.15155 -0.726946,0 -1.391373,0.0696 -1.476505,0.15479 -0.08513,0.0851 -0.04417,0.47208 0.09102,0.85989 0.217826,0.62486 0.383241,0.70511 1.453367,0.70511 1.060551,0 1.309844,0.11785 2.047695,0.96797 0.995686,1.14718 0.867249,1.08917 1.585131,0.71599 z m 3.022455,-1.1058 0.592452,-0.32913 -0.9423,-1.39924 c -1.615652,-2.3991 -4.216734,-3.65715 -7.037658,-3.40385 -1.952755,0.17535 -2.089803,0.27478 -1.721974,1.24927 0.289777,0.7677 0.341516,0.7884 1.564809,0.62613 1.886246,-0.25022 3.541935,0.31279 4.89298,1.66383 0.623257,0.62326 1.133197,1.31493 1.133197,1.53704 0,0.48385 0.701717,0.5097 1.518494,0.0559 z"
         id="path883"
         inkscape:connector-curvature="0" />
      <path
         style="fill:#3d8b23;stroke-width:0.26458335"
         d="m 86.291964,181.61616 c -7.479403,-0.62048 -14.925766,-4.10733 -20.345419,-9.52699 -10.068438,-10.06843 -12.515204,-25.52231 -6.043623,-38.17179 5.683161,-11.10841 16.832624,-17.93226 29.299459,-17.93226 18.262789,0 32.858609,14.60514 32.842349,32.86334 -0.0172,19.34864 -16.40963,34.3724 -35.752766,32.7677 z m 11.362614,-22.72127 c 2.369482,-1.20882 2.696952,-2.52653 2.599492,-10.45994 l -0.0715,-5.81932 -0.859896,-0.0829 c -0.785249,-0.0757 -0.860248,-0.0183 -0.863947,0.66146 -0.0021,0.4094 -0.09152,0.6184 -0.198437,0.46445 -0.522957,-0.75307 -1.580743,-1.17529 -2.944445,-1.17529 -1.359665,0 -1.505522,0.0666 -2.563561,1.17085 -1.313964,1.37132 -1.832941,3.13234 -1.653636,5.6112 0.294794,4.07546 3.169256,6.38752 6.064867,4.87825 l 1.106779,-0.57689 -0.142312,1.26259 c -0.182173,1.61622 -1.078013,2.47067 -2.590374,2.47067 -1.094163,0 -2.101913,-0.6977 -2.101913,-1.45521 0,-0.21828 -0.20836,-0.3985 -0.463021,-0.40049 -0.254662,-0.002 -0.730912,-0.0754 -1.058334,-0.16315 -0.508402,-0.13625 -0.595312,-0.0565 -0.595312,0.54592 0,2.73209 3.588009,4.46949 6.33553,3.06781 z m -3.251467,-6.65703 c -0.742908,-0.43185 -1.23198,-1.88841 -1.23198,-3.66911 0,-1.85234 0.475033,-3.18634 1.353839,-3.80188 0.901663,-0.63154 1.702056,-0.53041 2.67381,0.33785 0.816393,0.72945 0.866058,0.88069 0.958636,2.91931 0.106257,2.33982 -0.204036,3.49057 -1.112869,4.12714 -0.64293,0.45032 -1.942492,0.49297 -2.641436,0.0867 z m -6.946615,1.90327 c 0.561409,-0.34697 1.177555,-1.09264 1.594932,-1.93021 0.572024,-1.1479 0.67971,-1.72451 0.677535,-3.62797 -0.0031,-2.75676 -0.76313,-4.70938 -2.16579,-5.56456 -1.149463,-0.70082 -3.182644,-0.71755 -4.140782,-0.0341 l -0.702302,0.50097 0.08372,-2.61764 0.08372,-2.61764 h -1.075906 -1.075905 v 8.20209 8.20208 h 0.926042 c 0.774399,0 0.926041,-0.0942 0.926041,-0.57528 v -0.57529 l 0.595313,0.54161 c 0.327422,0.29788 0.773906,0.6129 0.992187,0.70004 0.700585,0.27968 2.339393,-0.0221 3.281199,-0.60412 z m -3.590483,-1.61282 c -1.375553,-0.80271 -1.703304,-5.42285 -0.504159,-7.1069 1.078945,-1.51524 2.970136,-1.39559 3.789596,0.23976 0.313386,0.62542 0.46274,1.54471 0.463021,2.84994 5.29e-4,2.12279 -0.461664,3.56569 -1.282713,4.0051 -0.657191,0.35172 -1.873539,0.35769 -2.465745,0.0121 z m 25.047827,1.89284 c 1.26222,-0.57962 1.82291,-1.168 2.37721,-2.49462 0.44371,-1.06196 0.45914,-1.04024 -0.95718,-1.34857 -0.59002,-0.12845 -0.74745,-0.029 -1.02865,0.6499 -0.43088,1.04023 -1.21776,1.57423 -2.31973,1.57423 -1.26899,0 -1.88407,-0.41984 -2.45396,-1.67499 -0.82624,-1.81977 -0.93132,-1.7646 3.36072,-1.7646 h 3.87321 l -0.14361,-1.58371 c -0.18502,-2.04047 -1.05335,-3.81793 -2.26855,-4.64368 -0.76806,-0.5219 -1.29078,-0.65177 -2.62346,-0.65177 -1.58322,0 -1.72215,0.0533 -2.85228,1.09506 -0.89897,0.82864 -1.29202,1.45289 -1.61558,2.56587 -0.76206,2.62141 -0.10263,6.14167 1.40606,7.50599 1.39031,1.25726 3.5087,1.56857 5.2458,0.77089 z m -4.6164,-8.03521 c 0.50107,-1.7845 2.50649,-2.61194 3.92402,-1.61907 0.51106,0.35797 1.35384,1.8135 1.35384,2.33818 0,0.0774 -1.24185,0.14079 -2.75966,0.14079 h -2.75965 z m -42.347143,4.29098 c 0,-2.77888 0.109774,-4.23997 0.364329,-4.84921 0.651309,-1.5588 2.9293,-1.95208 3.644935,-0.62927 0.198626,0.36715 0.365344,2.28162 0.438715,5.03789 l 0.118343,4.44571 0.957985,-0.0801 0.957984,-0.0801 -0.0027,-4.7625 c -0.0023,-4.04208 -0.07318,-4.8922 -0.468527,-5.6199 -0.588322,-1.08291 -1.391283,-1.602 -2.571467,-1.66238 -1.699582,-0.087 -2.07084,0.002 -2.890117,0.69121 l -0.81405,0.68498 v -0.70174 c 0,-0.63232 -0.08506,-0.69354 -0.859896,-0.61883 l -0.859896,0.0829 -0.07111,6.01927 -0.07111,6.01927 h 1.063301 1.063301 z m 17.197917,2.9038 v -1.07346 l -3.282699,0.0813 c -2.139216,0.053 -3.227123,-0.0109 -3.123151,-0.18332 0.08775,-0.14552 1.505435,-2.06078 3.150407,-4.25613 2.351544,-3.13834 2.99086,-4.17189 2.99086,-4.8352 v -0.84365 l -4.29948,0.0727 -4.299479,0.0727 v 0.92604 0.92604 h 2.935261 2.935262 l -2.374014,3.175 c -1.305707,1.74625 -2.715872,3.61451 -3.133699,4.15168 -0.511239,0.65726 -0.759685,1.28459 -0.759685,1.91822 v 0.94156 h 4.630208 4.630209 z m 38.578996,0.0813 c -0.0688,-0.83098 -0.18959,-1.00657 -0.74358,-1.08073 -0.3638,-0.0487 -0.74484,-0.16781 -0.84676,-0.26468 -0.10191,-0.0969 -0.20442,-1.90249 -0.22778,-4.01249 l -0.0425,-3.83637 0.83853,-0.0841 c 0.76885,-0.0771 0.83175,-0.15402 0.75695,-0.92604 -0.0698,-0.72003 -0.19654,-0.85318 -0.87532,-0.91932 l -0.79375,-0.0773 0.087,-1.97318 c 0.0479,-1.08525 0.0165,-1.97318 -0.0699,-1.97318 -0.0863,0 -0.57048,0.26789 -1.07596,0.59531 -0.85314,0.55262 -0.91929,0.69362 -0.92233,1.96597 -0.003,1.21881 -0.0692,1.38003 -0.59859,1.45521 -0.45627,0.0648 -0.61468,0.28538 -0.67822,0.94445 -0.0741,0.76806 -0.0105,0.85989 0.59531,0.85989 h 0.67822 v 4.46224 c 0,4.11369 0.0428,4.51669 0.54837,5.15937 0.4734,0.60183 0.74689,0.69714 2.00035,0.69714 h 1.45198 z M 89.846615,143.01905 c 0.822725,-0.3128 0.84641,-0.61535 0.127235,-1.62534 -0.737938,-1.03634 -2.43536,-1.86576 -3.862453,-1.88733 -1.464726,-0.0221 -1.802953,0.28234 -1.369762,1.23309 0.25843,0.56719 0.455012,0.68578 0.936483,0.56494 0.820285,-0.20588 2.287119,0.44023 2.896044,1.27565 0.587246,0.80568 0.440836,0.75517 1.272453,0.43899 z m 2.927398,-1.06479 0.695663,-0.26449 -0.612293,-1.09275 c -1.494605,-2.66739 -4.229796,-4.09701 -7.404008,-3.86989 -1.004374,0.0719 -1.879346,0.18387 -1.94438,0.2489 -0.06503,0.065 0.01807,0.47941 0.184697,0.92083 0.299977,0.79473 0.321511,0.80233 2.198185,0.77631 1.672757,-0.0232 2.04819,0.0679 3.198183,0.77634 0.765538,0.47157 1.521203,1.2079 1.832113,1.78522 0.566589,1.05208 0.769649,1.13098 1.85184,0.71953 z"
         id="path881"
         inkscape:connector-curvature="0" />
    </g>
    <path
       style="opacity:1;vector-effect:none;fill:#ffffff;fill-opacity:1;stroke:#ffffff;stroke-width:0.25253814;stroke-linecap:butt;stroke-linejoin:miter;stroke-miterlimit:4;stroke-dasharray:none;stroke-dashoffset:0;stroke-opacity:1"
       d="m 15.150289,124.09644 v -21.84455 h 1.845768 c 2.620795,0 2.748919,0.13717 2.976031,3.18632 0.102243,1.37268 0.195586,2.5242 0.20743,2.55892 0.119935,0.35164 1.045571,-0.30465 3.1104,-2.20532 3.478209,-3.20169 3.851204,-3.36372 8.035522,-3.49066 11.116524,-0.33724 13.295029,2.42803 14.112306,17.91337 0.134676,2.55174 0.321299,9.38409 0.414723,15.183 l 0.169859,10.54346 h -2.895632 -2.895633 l -0.165246,-4.35628 c -0.09089,-2.39595 -0.168306,-7.25416 -0.172046,-10.796 -0.0088,-8.29067 -0.368206,-15.07537 -0.894624,-16.88619 -1.655913,-5.69614 -5.774289,-7.84668 -10.977698,-5.73234 -1.968684,0.79995 -3.597684,1.99402 -4.464245,3.27235 -0.386695,0.57044 -0.763554,1.09398 -0.837466,1.16343 -0.202991,0.19073 -0.973024,3.43097 -1.290321,5.42957 -0.165908,1.04503 -0.329538,7.11088 -0.400225,14.83662 l -0.119575,13.06884 h -2.879664 -2.879664 z"
       id="path979"
       inkscape:connector-curvature="0"
       transform="matrix(0.26458333,0,0,0.26458333,44.790177,68.857071)" />
    <path
       style="opacity:1;vector-effect:none;fill:#ffffff;fill-opacity:1;stroke:#ffffff;stroke-width:0.25253814;stroke-linecap:butt;stroke-linejoin:miter;stroke-miterlimit:4;stroke-dasharray:none;stroke-dashoffset:0;stroke-opacity:1"
       d="m 53.083817,143.98381 c 0.09348,-1.55431 0.28462,-2.28558 0.928622,-3.55268 1.30807,-2.57367 5.497717,-8.62005 12.865179,-18.56665 8.2544,-11.14404 10.144514,-13.74634 10.144514,-13.96692 0,-0.0917 -5.043036,-0.0851 -11.206748,0.0148 l -11.206747,0.18155 -0.178271,-1.42682 c -0.09805,-0.78476 -0.10307,-1.9736 -0.01116,-2.64188 l 0.167111,-1.21505 4.588781,-0.15074 c 8.610559,-0.28287 22.515861,-0.40952 24.034217,-0.21892 l 1.515228,0.19021 0.07658,1.33313 c 0.0641,1.11574 -0.06857,1.61797 -0.813569,3.07981 -1.615747,3.17045 -4.536224,7.45295 -11.887584,17.43161 -2.09768,2.84737 -5.421892,7.41267 -7.387139,10.14512 -3.177903,4.41851 -3.528319,5.00517 -3.167665,5.3033 0.32433,0.26811 2.786245,0.33522 12.297518,0.33522 h 11.892007 l 0.0714,2.84105 0.07141,2.84105 H 69.421812 52.966114 Z"
       id="path981"
       inkscape:connector-curvature="0"
       transform="matrix(0.26458333,0,0,0.26458333,44.790177,68.857071)" />
    <path
       style="opacity:1;vector-effect:none;fill:#ffffff;fill-opacity:1;stroke:#ffffff;stroke-width:0.25253814;stroke-linecap:butt;stroke-linejoin:miter;stroke-miterlimit:4;stroke-dasharray:none;stroke-dashoffset:0;stroke-opacity:1"
       d="m 107.16714,146.48672 c -1.89129,-0.65367 -3.85238,-1.92003 -6.08135,-3.92696 l -1.966571,-1.77067 -0.06296,1.37639 c -0.159076,3.47752 -0.394711,3.7755 -2.985535,3.7755 H 94.194725 V 116.00694 86.072904 l 2.841054,0.07141 2.841055,0.07141 -0.08529,10.026665 c -0.04691,5.514671 -0.0116,10.145891 0.07846,10.291611 0.234436,0.37932 0.865656,-0.009 2.722646,-1.67633 2.32002,-2.08267 3.25187,-2.42795 6.88063,-2.54946 9.57656,-0.32067 14.29593,4.0082 16.06593,14.73657 0.52544,3.18484 0.45691,12.10679 -0.11333,14.75408 -0.99079,4.59963 -2.57187,7.87218 -4.99036,10.32912 -3.7544,3.81409 -9.44013,5.68189 -13.26838,4.35875 z m 6.09421,-6.21167 c 1.89637,-0.92795 4.11557,-3.12107 5.00547,-4.94664 1.2896,-2.64554 1.55289,-4.55697 1.54715,-11.23197 -0.006,-6.7922 -0.27152,-8.63721 -1.64696,-11.43727 -0.95276,-1.9396 -2.95759,-4.03224 -4.65312,-4.85692 -1.87996,-0.91439 -4.76457,-0.86879 -6.72276,0.10628 -2.57239,1.2809 -5.112,4.2774 -6.28714,7.41822 -2.21396,5.91736 -1.828057,15.00882 0.87569,20.63013 1.85239,3.85128 4.0617,5.25126 8.0936,5.1287 1.91709,-0.0583 2.51001,-0.18514 3.78807,-0.81053 z"
       id="path983"
       inkscape:connector-curvature="0"
       transform="matrix(0.26458333,0,0,0.26458333,44.790177,68.857071)" />
  </g>
</svg>
