<?xml version="1.0" encoding="UTF-8" standalone="no"?>
<svg
   xmlns:dc="http://purl.org/dc/elements/1.1/"
   xmlns:cc="http://creativecommons.org/ns#"
   xmlns:rdf="http://www.w3.org/1999/02/22-rdf-syntax-ns#"
   xmlns:svg="http://www.w3.org/2000/svg"
   xmlns="http://www.w3.org/2000/svg"
   xmlns:sodipodi="http://sodipodi.sourceforge.net/DTD/sodipodi-0.dtd"
   xmlns:inkscape="http://www.inkscape.org/namespaces/inkscape"
   version="1"
   width="1365.333"
   height="1365.333"
   viewBox="0 0 1024.000000 1024.000000"
   id="svg887"
   sodipodi:docname="ombi.svg"
   inkscape:version="0.92.4 5da689c313, 2019-01-14">
  <metadata
     id="metadata893">
    <rdf:RDF>
      <cc:Work
         rdf:about="">
        <dc:format>image/svg+xml</dc:format>
        <dc:type
           rdf:resource="http://purl.org/dc/dcmitype/StillImage" />
      </cc:Work>
    </rdf:RDF>
  </metadata>
  <defs
     id="defs891" />
  <sodipodi:namedview
     pagecolor="#ffffff"
     bordercolor="#666666"
     borderopacity="1"
     objecttolerance="10"
     gridtolerance="10"
     guidetolerance="10"
     inkscape:pageopacity="0"
     inkscape:pageshadow="2"
     inkscape:window-width="1920"
     inkscape:window-height="1023"
     id="namedview889"
     showgrid="false"
     inkscape:zoom="0.59765639"
     inkscape:cx="688.32635"
     inkscape:cy="683.42112"
     inkscape:window-x="1920"
     inkscape:window-y="27"
     inkscape:window-maximized="1"
     inkscape:current-layer="svg887" />
  <path
     d="M487.2 71c-140.4 9.8-263.6 80.9-341 196.7-39.5 59-63.1 124.3-71.8 198.8-2.5 21.1-2.5 71.9 0 93 6.5 56 19.9 101.7 43.7 150 21.9 44.5 48.5 81.2 85.3 118 47.8 47.7 105.8 83.8 168.9 105 160.4 53.9 335.7 13.4 454.3-105 36.8-36.8 63.4-73.5 85.3-118 23.8-48.3 37.2-94 43.7-150 2.5-21.1 2.5-71.9 0-93-5.2-44.4-15.1-83.6-30.9-122.2-32.3-78.8-88.7-148.4-159.2-196.6-61.7-42.1-130.7-67.4-205.5-75.2-17.9-1.9-56.3-2.7-72.8-1.5zM391 283c11.3 3.2 21.2 8.6 31.4 17.1 5 4.2 28.7 27.4 52.6 51.5 46.2 46.6 48 48.8 54.4 64.8 4.3 10.7 5.9 19.7 5.8 33.1 0 13.9-1.9 22.6-7.8 35.4l-3.7 8.2 3.8 3.9 3.8 3.9 4.6-2.3c19-9.6 43.2-12.1 63.1-6.6 9.7 2.7 22.1 8.7 29.6 14.4 3.2 2.4 27.1 25.7 52.9 51.8 41.7 42 47.5 48.2 51.4 55.1 8.8 15.7 12.8 32.1 11.7 48.7-.7 10.7-3.4 23-6.7 30.5-6.2 14.2-20 30.1-34.1 39.2-25.2 16.3-57.3 17.7-85.8 3.7l-11.5-5.7-50.1-50.1c-54.7-54.7-56.7-57.1-62.5-73.9-4-11.5-5.2-21.2-4.6-34.7.7-13.3 2.3-20.2 7.7-31.7l3.8-8.1-3.7-3.6-3.7-3.7-7.9 3.6c-27.5 12.6-61.6 10-86.2-6.5-6.6-4.5-98.4-96-103.9-103.7-10.6-14.6-15.7-31.5-15.7-51.3 0-14.6 1.6-22.4 7.3-34.6 12.5-27.1 34.7-44.6 63.5-50.3 8.4-1.7 31.9-.6 40.5 1.9zm179 66c1.9 1.9 2 3.3 2 35.2 0 32.7 0 33.2-2.2 35.5-3.1 3.3-7.7 3.1-11.1-.5l-2.7-2.8V384c0-31.9 0-32.4 2.2-34.7 2.8-3 8.9-3.2 11.8-.3zm74.1 30.9c5.6 5.6 5.3 6.1-20.3 31.8-25.6 25.6-26.9 26.5-31.9 21.7-2.1-2-2.9-3.7-2.9-6.3 0-3.4 1.5-5.1 22.3-25.7 12.2-12.2 23.1-22.7 24.2-23.3 3.3-1.7 5.5-1.3 8.6 1.8zm29.9 73.6c2.1 1.1 3.1 2.5 3.6 5.2.6 3.3.3 4-2.5 6.5L672 468h-64.4l-2.8-2.7c-3.6-3.4-3.7-7.5-.3-10.8l2.4-2.5H639c26.6 0 32.6.3 35 1.5z"
     id="path883" />
  <path
     d="M358.4 324.5c-28.1 6.1-42.3 34.4-30.7 61 2.4 5.4 7.3 10.6 48.1 51.7 48.4 48.6 50 50 62.7 53.3 7.1 1.8 14.4 1.9 18 .3 2.5-1.1 2.3-1.4-20.8-24.7-21.3-21.5-23.5-24-24.6-28.3-3.3-13.7 6.7-26.8 20.6-26.8 2.9 0 7 .7 9.1 1.6 2.4.9 11.8 9.5 26.3 24l22.6 22.5 1.3-3.1c2.8-6.6-.7-22.3-6.9-31.6-2.3-3.4-22.5-24.3-47.8-49.4-47-46.8-48.3-47.8-61-50.5-8.1-1.7-9-1.7-16.9 0zM567.8 533.7c-1 .2-1.8.7-1.8 1.1 0 .3 13.2 13.9 29.4 30.2 28.2 28.2 29.5 29.7 31 35.1 2 6.8 1.1 12.1-3 18-2.9 4.2-8.8 8.2-13.8 9.3-1.5.4-5.4.2-8.5-.5l-5.6-1.1-30-29.9c-16.6-16.4-30.3-29.9-30.7-29.9-.3 0-1.1 1.9-1.7 4.3-1.9 7.6 1.2 20.8 6.9 29.7 4.2 6.4 90.5 92.1 96 95.2 16.7 9.5 36.8 7 51.4-6.3 13.7-12.5 17.2-33 8.5-50.8-2.8-6-7.6-11.1-48.8-52.2-48.8-48.7-49.3-49.1-61.9-51.8-5.2-1.1-14-1.3-17.4-.4z"
     id="path885"
     style="fill:#352716;fill-opacity:1;stroke-width:1;stroke-miterlimit:4;stroke-dasharray:none;stroke:#ffffff;stroke-opacity:1;font-variant-east_asian:normal;opacity:1;vector-effect:none;stroke-linecap:butt;stroke-linejoin:miter;stroke-dashoffset:0" />
  <path
     style="opacity:1;vector-effect:none;fill:#352716;fill-opacity:1;stroke:#ffffff;stroke-width:1.67320216;stroke-linecap:butt;stroke-linejoin:miter;stroke-miterlimit:4;stroke-dasharray:none;stroke-dashoffset:0;stroke-opacity:1"
     d="M 652.8835,1274.1548 C 560.51533,1268.7253 462.77907,1238.9604 386.00775,1192.8797 297.79442,1139.9311 222.86798,1063.7132 173.44009,976.64813 116.4305,876.22826 90.728054,766.25676 97.138259,650.18013 104.04623,525.08997 147.84892,411.98171 228.59184,310.73785 c 17.74944,-22.25609 64.21227,-68.54522 87.14142,-86.81565 92.58428,-73.77309 200.62225,-117.16112 319.58763,-128.346349 31.60995,-2.971995 103.80145,-1.118877 133.85017,3.435864 138.9583,21.063095 255.00414,81.731405 350.14034,183.051915 75.6011,80.51566 125.9048,179.63743 147.4302,290.50617 8.5039,43.80005 9.3126,53.4682 9.3071,111.26795 -0.01,59.97807 -1.0515,71.50884 -10.8745,119.90396 -18.0582,88.96756 -59.0276,176.35178 -116.3667,248.20049 -17.1566,21.4981 -56.9089,62.5731 -78.46,81.0706 -115.24489,98.9156 -266.40362,150.0214 -417.464,141.142 z M 913.19764,986.92618 c 34.05865,-11.0516 64.94055,-42.79933 74.28679,-76.36953 4.86436,-17.47205 6.06684,-41.20865 2.85061,-56.27041 -3.5602,-16.67266 -11.61163,-35.13098 -19.61843,-44.97625 -3.73405,-4.59145 -34.73845,-36.43731 -68.89866,-70.76859 -66.61954,-66.95315 -70.76863,-70.37637 -96.67304,-79.76043 -24.81583,-8.98969 -60.36425,-7.22175 -85.10287,4.23245 -5.85495,2.71089 -11.22441,4.9289 -11.93214,4.9289 -0.70771,0 -3.24313,-2.56495 -5.63427,-5.69991 l -4.34753,-5.6999 5.01738,-11.06562 c 8.14873,-17.97161 10.44617,-30.80434 9.45791,-52.82867 -1.00821,-22.46898 -5.87316,-39.00937 -16.15067,-54.91068 C 684.76244,519.65041 571.51807,405.73681 551.9229,392.3536 c -15.17308,-10.36297 -30.34369,-15.4554 -51.59913,-17.32065 -27.82997,-2.44217 -49.73015,2.05442 -71.15369,14.60946 -12.14011,7.11458 -29.83251,24.77506 -38.08607,38.01735 -11.83171,18.9832 -16.17513,32.36169 -17.19401,52.96062 -1.14609,23.17102 2.3083,41.07731 11.6055,60.15858 6.38163,13.09742 9.58715,16.92951 40.53142,48.45387 18.48095,18.82741 50.16643,50.45299 70.41218,70.27905 34.18753,33.47885 37.77376,36.49614 50.32967,42.34517 31.24074,14.55314 66.94273,15.09514 99.28293,1.50722 l 11.79648,-4.95635 5.23013,4.56641 5.23013,4.5664 -5.00458,11.57334 c -9.08758,21.01549 -9.58519,23.57781 -9.55861,49.22039 0.0229,22.17299 0.42577,25.41368 4.6789,37.64705 2.55954,7.36209 7.41275,17.52679 10.78491,22.58823 9.47408,14.22012 138.36875,143.29049 148.03306,148.23484 23.68154,12.11569 39.58049,15.86224 64.03349,15.08937 14.14593,-0.44711 21.53324,-1.59674 31.92203,-4.96777 z M 900.20193,619.35427 c 4.49704,-4.18961 4.59816,-6.77325 0.46502,-11.88017 -3.19172,-3.94367 -3.26857,-3.95096 -47.49221,-4.50995 l -44.29533,-0.5599 -2.70384,3.86029 c -3.45816,4.93722 -3.43566,9.573 0.0652,13.44147 2.54824,2.81577 6.26025,3.05985 46.53416,3.05985 41.73095,0 43.93521,-0.15861 47.42694,-3.41159 z m -95.62558,-44.87548 c 13.74603,-10.9606 55.56738,-54.84148 56.74704,-59.54161 1.38287,-5.50978 -3.0732,-10.96867 -8.95367,-10.96867 -4.66568,0 -40.60713,32.70558 -57.60056,52.41466 -10.55983,12.24737 -11.24723,15.6627 -4.35232,21.62454 4.56418,3.94651 4.88443,3.8667 14.15951,-3.52892 z M 758.5818,559.76145 c 2.81849,-2.55069 3.05985,-6.28577 3.05985,-47.35162 0,-32.44433 -0.54667,-45.12916 -2.00784,-46.59033 -1.10432,-1.10432 -4.44985,-2.00785 -7.43454,-2.00785 -10.15197,0 -10.63605,2.25791 -10.63605,49.61033 v 42.17291 l 4.40866,3.46785 c 5.32757,4.19067 8.55382,4.36943 12.60992,0.69871 z"
     id="path969"
     inkscape:connector-curvature="0"
     transform="scale(0.75000018)" />
  <path
     style="opacity:1;vector-effect:none;fill:#e37200;fill-opacity:1;stroke:#ffffff;stroke-width:1.67320216;stroke-linecap:butt;stroke-linejoin:miter;stroke-miterlimit:4;stroke-dasharray:none;stroke-dashoffset:0;stroke-opacity:1"
     d="m 861.19718,992.6022 c -14.31905,-1.79459 -23.33187,-4.50515 -37.64705,-11.32216 -11.87878,-5.65678 -16.087,-9.51468 -78.79102,-72.23202 -36.43311,-36.44084 -69.2853,-70.16406 -73.00488,-74.94049 -3.71958,-4.77644 -9.2989,-14.56467 -12.39849,-21.75162 l -5.63563,-13.06721 v -30.95424 -30.95424 l 6.4146,-14.88426 6.41461,-14.88425 -4.54425,-3.62347 -4.54427,-3.62347 -14.41937,5.36487 c -34.43688,12.81259 -66.55656,11.56198 -98.91607,-3.85139 -11.82163,-5.63085 -16.31544,-9.72139 -77.52828,-70.57099 -35.7386,-35.52652 -68.39286,-69.11132 -72.56504,-74.63288 -15.11585,-20.00472 -21.13531,-39.48612 -21.19677,-68.60129 -0.0493,-23.35203 2.29271,-33.09345 12.87251,-53.54247 9.20112,-17.78426 32.1197,-41.06691 48.00397,-48.76652 19.46741,-9.43648 26.22312,-11.08962 48.50513,-11.86937 37.93384,-1.32748 58.31222,5.9651 86.46083,30.94075 36.80103,32.65273 120.87755,119.50458 130.71195,135.02668 11.10449,17.52674 17.4523,51.77727 13.95462,75.2941 -1.04046,6.99552 -4.33214,18.91066 -7.31485,26.47809 -2.98272,7.56742 -5.43134,14.15383 -5.44139,14.63647 -0.01,0.48262 1.65731,3.00766 3.70524,5.61118 l 3.72353,4.73369 12.17189,-5.02496 c 6.69455,-2.76373 16.68956,-5.99075 22.21112,-7.17118 13.33231,-2.85021 41.24358,-2.87312 52.70587,-0.0432 14.7494,3.64142 33.05724,12.852 44.98553,22.632 6.08671,4.99047 38.5817,36.80395 72.21109,70.69661 66.33054,66.84978 68.16027,69.15073 76.9448,96.76024 5.08357,15.97754 5.15204,44.4136 0.15226,63.27039 -8.57891,32.35601 -31.65002,59.74003 -62.94739,74.71465 -7.36209,3.52249 -17.15032,7.19482 -21.75163,8.16076 -12.08679,2.53731 -31.90744,3.44455 -43.50325,1.99124 z m 32.62744,-62.30831 c 9.28982,-2.72009 21.48623,-11.22439 27.62215,-19.26036 8.3674,-10.95846 11.42377,-21.76524 10.48567,-37.07546 -1.36587,-22.29157 -1.56801,-22.55536 -68.90016,-89.91241 -34.4472,-34.45994 -63.63223,-62.276 -67.92659,-64.74038 -8.28673,-4.75546 -25.93062,-8.2788 -33.68827,-6.72727 -4.86122,0.97224 -4.22744,1.73286 31.65891,37.99519 20.14069,20.35169 37.94743,39.05667 39.57052,41.56662 9.82829,15.19844 3.8593,34.82587 -13.08567,43.02878 -6.04272,2.92524 -9.09061,3.38639 -16.35921,2.47521 l -8.93288,-1.1198 -40.47478,-40.22389 c -38.95844,-38.71692 -40.51799,-40.05169 -41.62825,-35.62809 -1.91248,7.61993 0.59377,21.25204 5.88208,31.99413 4.24797,8.62886 14.05103,19.13227 65.81452,70.51644 39.15014,38.86325 63.4193,61.70188 68.1091,64.09442 12.42381,6.33818 26.9369,7.38431 41.85286,3.01687 z M 606.902,652.83244 c 0.58611,-0.94834 -12.15401,-15.30354 -28.31137,-31.90044 -31.17577,-32.02387 -34.37532,-36.8883 -32.13122,-48.85043 1.42825,-7.61322 7.21632,-16.05387 14.26693,-20.80528 7.49241,-5.04914 21.98283,-5.26116 29.89458,-0.43742 3.02616,1.84502 18.23963,15.84825 33.80772,31.11828 27.18837,26.66781 28.34992,27.58717 29.42802,23.29174 1.53596,-6.1198 -0.14089,-16.90535 -4.45897,-28.68032 -3.38574,-9.2326 -7.48452,-13.72307 -64.90067,-71.10301 -35.64854,-35.62605 -64.43648,-63.03507 -68.8161,-65.51987 -10.836,-6.14785 -24.74778,-8.63613 -35.45075,-6.34075 -18.76924,4.02528 -32.33452,13.6064 -40.73325,28.76976 -4.62166,8.34413 -4.9663,10.18557 -4.9663,26.53499 0,15.21026 0.52937,18.57935 3.9436,25.09803 4.8105,9.18453 123.67014,128.66574 132.42238,133.11487 13.07739,6.64776 33.43089,9.8755 36.0054,5.70985 z"
     id="path973"
     inkscape:connector-curvature="0"
     transform="scale(0.75000018)" />
  <path
     style="opacity:1;vector-effect:none;fill:#e37200;fill-opacity:1;stroke:#ffffff;stroke-width:1.67320216;stroke-linecap:butt;stroke-linejoin:miter;stroke-miterlimit:4;stroke-dasharray:none;stroke-dashoffset:0;stroke-opacity:1"
     d="m 745.22901,560.43908 -5.4897,-3.7647 0.49365,-43.74823 c 0.45448,-40.27595 0.74665,-44.02759 3.68109,-47.26797 3.67744,-4.06082 10.6178,-4.58 15.3163,-1.14575 3.07711,2.24915 3.2479,4.76433 3.2479,47.83238 v 45.4584 l -3.95007,3.20029 c -5.04785,4.0897 -6.60915,4.02344 -13.29917,-0.56442 z"
     id="path975"
     inkscape:connector-curvature="0"
     transform="scale(0.75000018)" />
  <path
     style="opacity:1;vector-effect:none;fill:#e37200;fill-opacity:1;stroke:#ffffff;stroke-width:1.67320216;stroke-linecap:butt;stroke-linejoin:miter;stroke-miterlimit:4;stroke-dasharray:none;stroke-dashoffset:0;stroke-opacity:1"
     d="m 789.47513,579.14117 c -9.86609,-7.76068 -3.91357,-17.59781 30.39333,-50.228 29.18752,-27.76102 34.99265,-30.66655 41.48219,-20.76225 2.31772,3.53729 2.31617,4.42745 -0.0156,8.93657 -5.1932,10.04249 -61.20775,65.52152 -66.154,65.52152 -0.71352,0 -3.2812,-1.56053 -5.70596,-3.46784 z"
     id="path977"
     inkscape:connector-curvature="0"
     transform="scale(0.75000018)" />
  <path
     style="opacity:1;vector-effect:none;fill:#e37200;fill-opacity:1;stroke:#ffffff;stroke-width:1.67320216;stroke-linecap:butt;stroke-linejoin:miter;stroke-miterlimit:4;stroke-dasharray:none;stroke-dashoffset:0;stroke-opacity:1"
     d="m 810.18966,623.00061 c -2.28682,-0.66569 -5.29181,-3.23064 -6.67776,-5.69988 -2.30069,-4.09896 -2.23341,-5.02155 0.77339,-10.60484 l 3.29331,-6.1153 43.81094,0.76357 c 36.9793,0.64451 44.46661,1.19319 48.01572,3.51866 6.54824,4.29057 7.25956,9.16927 2.09099,14.34141 l -4.3952,4.39824 -41.37677,0.30424 c -22.75722,0.16734 -43.2478,-0.24041 -45.53462,-0.9061 z"
     id="path979"
     inkscape:connector-curvature="0"
     transform="scale(0.75000018)" />
</svg>
