<?xml version="1.0" encoding="UTF-8" standalone="no"?>
<svg
   xmlns:dc="http://purl.org/dc/elements/1.1/"
   xmlns:cc="http://creativecommons.org/ns#"
   xmlns:rdf="http://www.w3.org/1999/02/22-rdf-syntax-ns#"
   xmlns:svg="http://www.w3.org/2000/svg"
   xmlns="http://www.w3.org/2000/svg"
   xmlns:sodipodi="http://sodipodi.sourceforge.net/DTD/sodipodi-0.dtd"
   xmlns:inkscape="http://www.inkscape.org/namespaces/inkscape"
   id="logo"
   role="img"
   aria-labelledby="pfsense-logo"
   x="0px"
   y="0px"
   viewBox="0 0 87.8 84.2"
   version="1.1"
   sodipodi:docname="pfsense.svg"
   width="87.799988"
   height="84.199997"
   inkscape:version="0.92.4 5da689c313, 2019-01-14">
  <metadata
     id="metadata4654">
    <rdf:RDF>
      <cc:Work
         rdf:about="">
        <dc:format>image/svg+xml</dc:format>
        <dc:type
           rdf:resource="http://purl.org/dc/dcmitype/StillImage" />
        <dc:title>pfSense Logo</dc:title>
      </cc:Work>
    </rdf:RDF>
  </metadata>
  <defs
     id="defs4652" />
  <sodipodi:namedview
     pagecolor="#ffffff"
     bordercolor="#666666"
     borderopacity="1"
     objecttolerance="10"
     gridtolerance="10"
     guidetolerance="10"
     inkscape:pageopacity="0"
     inkscape:pageshadow="2"
     inkscape:window-width="1920"
     inkscape:window-height="1023"
     id="namedview4650"
     showgrid="false"
     inkscape:zoom="1.0749647"
     inkscape:cx="-24.651974"
     inkscape:cy="42.099998"
     inkscape:window-x="1920"
     inkscape:window-y="27"
     inkscape:window-maximized="1"
     inkscape:current-layer="logo" />
  <title
     id="pfsense-logo-svg">pfSense Logo</title>
  <path
     class="logo-st0"
     d="m 27.8,57.7 c 2.9,0 5.4,-0.9 7.5,-2.6 2.1,-1.7 3.6,-4 4.4,-6.8 0.8,-2.8 0.6,-5.1 -0.5,-6.8 -1.1,-1.7 -3.2,-2.6 -6.1,-2.6 -2.9,0 -5.4,0.9 -7.5,2.6 -2.1,1.7 -3.5,4 -4.3,6.8 -0.8,2.8 -0.7,5.1 0.5,6.8 1,1.8 3,2.6 6,2.6"
     id="path4631"
     inkscape:connector-curvature="0" />
  <path
     class="logo-st1"
     d="m 52.6,38.9 2.6,-9.2 h 4.6 l 1.8,-6.6 c 0.6,-2 1.3,-4 2.2,-5.8 0.8,-1.8 2,-3.4 3.4,-4.8 C 68.6,11.1 70.4,10 72.5,9.2 74.6,8.4 77.3,8 80.4,8 81.2,8 81.9,8 82.7,8.1 82,5.2 79.4,3.1 76.4,3 H 11.9 C 8.3,3 5.4,6 5.4,9.6 V 67 L 15.9,29.7 h 10.6 l -1.4,4.9 h 0.2 c 0.6,-0.7 1.4,-1.3 2.4,-2 1,-0.7 2,-1.3 3.1,-1.9 1.1,-0.6 2.3,-1 3.6,-1.4 1.3,-0.4 2.6,-0.5 3.9,-0.5 2.8,0 5.1,0.5 7.1,1.4 2,0.9 3.5,2.3 4.7,4 1,1.5 1.6,3.3 1.9,5.4 L 52.8,39 h -0.2 z"
     id="path4643"
     inkscape:connector-curvature="0" />
  <path
     class="logo-st2"
     d="m 82.1,17.9 c -0.5,-0.1 -1.1,-0.2 -1.8,-0.2 -1.8,0 -3.3,0.4 -4.5,1.2 -1.1,0.8 -2.1,2.4 -2.8,4.9 l -1.7,5.9 h 6.5 l 1.6,5.1 -4.2,4.1 h -6.5 l -7.9,28 H 49.4 l 7.9,-28 H 52.9 L 52,39.5 c 0,0.2 0.1,0.5 0.1,0.7 0.2,2.3 -0.1,4.9 -0.9,7.7 -0.7,2.6 -1.8,5.1 -3.3,7.5 -1.5,2.4 -3.2,4.5 -5.1,6.3 -2,1.8 -4.2,3.3 -6.6,4.4 -2.4,1.1 -4.9,1.6 -7.6,1.6 -2.4,0 -4.5,-0.4 -6.4,-1.1 -1.9,-0.7 -3.2,-2 -4,-3.8 H 18 l -5,17.7 h 63.3 c 3.6,0 6.6,-2.9 6.6,-6.6 V 18.2 C 82.6,18.1 82.3,18 82.1,17.9"
     id="path4645"
     inkscape:connector-curvature="0" />
</svg>
