<?xml version="1.0" encoding="UTF-8" standalone="no"?>
<!-- Generator: Adobe Illustrator 19.2.1, SVG Export Plug-In . SVG Version: 6.00 Build 0)  -->

<svg
   xmlns:dc="http://purl.org/dc/elements/1.1/"
   xmlns:cc="http://creativecommons.org/ns#"
   xmlns:rdf="http://www.w3.org/1999/02/22-rdf-syntax-ns#"
   xmlns:svg="http://www.w3.org/2000/svg"
   xmlns="http://www.w3.org/2000/svg"
   xmlns:sodipodi="http://sodipodi.sourceforge.net/DTD/sodipodi-0.dtd"
   xmlns:inkscape="http://www.inkscape.org/namespaces/inkscape"
   version="1.1"
   id="Layer_1"
   x="0px"
   y="0px"
   viewBox="0 0 242.2 107.4"
   style="enable-background:new 0 0 242.2 107.4;"
   xml:space="preserve"
   sodipodi:docname="rancher.svg"
   inkscape:version="0.92.4 5da689c313, 2019-01-14"><metadata
   id="metadata21"><rdf:RDF><cc:Work
       rdf:about=""><dc:format>image/svg+xml</dc:format><dc:type
         rdf:resource="http://purl.org/dc/dcmitype/StillImage" /></cc:Work></rdf:RDF></metadata><defs
   id="defs19" /><sodipodi:namedview
   pagecolor="#ffffff"
   bordercolor="#666666"
   borderopacity="1"
   objecttolerance="10"
   gridtolerance="10"
   guidetolerance="10"
   inkscape:pageopacity="0"
   inkscape:pageshadow="2"
   inkscape:window-width="1920"
   inkscape:window-height="1023"
   id="namedview17"
   showgrid="false"
   inkscape:zoom="2.5103221"
   inkscape:cx="156.60489"
   inkscape:cy="127.61488"
   inkscape:window-x="1920"
   inkscape:window-y="27"
   inkscape:window-maximized="1"
   inkscape:current-layer="g14" />
<style
   type="text/css"
   id="style2">
	.st0{fill:#0075A8;}
</style>
<g
   id="g14"
   style="display:inline;stroke:#ff0000;stroke-width:43.49999619;stroke-miterlimit:4;stroke-dasharray:none;stroke-opacity:0">
	<g
   id="g8"
   style="display:inline;stroke:#ffffff;stroke-width:2;stroke-miterlimit:4;stroke-dasharray:none;stroke-opacity:1">
		<path
   class="st0"
   d="M 229,23.6 226.5,8.7 C 225.7,3.9 223.8,0 222.4,0 c -1.5,0 -2.7,4 -2.7,8.8 v 3.9 c 0,4.8 -4,8.8 -8.8,8.8 H 207 c -0.3,0 -0.6,0 -0.8,0 v 10.7 c 0.3,0 0.6,0 0.8,0 h 14.7 c 4.8,0 8.1,-3.9 7.3,-8.6"
   id="path4"
   inkscape:connector-curvature="0"
   style="fill:#0075a8;stroke:#ffffff;stroke-width:2;stroke-miterlimit:4;stroke-dasharray:none;stroke-opacity:1" />
		<path
   class="st0"
   d="m 193.9,11 h -23.7 c -0.2,0 -0.4,0 -0.6,0 h -24.4 c -0.3,0 -0.6,0 -0.8,0.1 V 8.8 C 144.4,4 143.2,0 141.7,0 c -1.5,0 -3.3,3.9 -4.1,8.7 l -2.5,14.9 c -0.8,4.8 2.5,8.7 7.4,8.7 h 14.6 c 1.5,0 2.9,-0.2 4.2,-0.6 -0.5,2.5 -2.6,4.4 -5.3,4.4 h -20.5 c -3.3,0 -5.8,-3 -5.3,-6.3 l 2.1,-12.5 C 132.8,14 130.3,11 127,11 H 24.8 c -2.2,0 -4,1.3 -4.9,3.2 L 0.7,43.5 C 0.4,44 0.4,44.6 0.8,45.1 l 3.7,4.4 c 0.5,0.6 1.3,0.6 1.9,0.2 L 19.5,39.4 V 102 c 0,3 2.4,5.4 5.4,5.4 h 29 c 3,0 5.4,-2.4 5.4,-5.4 V 80.2 c 0,-3 2.4,-5.4 5.4,-5.4 h 72.4 c 3,0 5.4,2.4 5.4,5.4 V 102 c 0,3 2.4,5.4 5.4,5.4 h 29 c 3,0 5.4,-2.4 5.4,-5.4 V 78.6 h -15.4 c -4.8,0 -8.8,-4 -8.8,-8.8 V 54.7 c 0,-2.9 1.4,-5.4 3.5,-7 v 18 c 0,4.8 4,8.8 8.8,8.8 h 23.7 c 4.8,0 8.8,-4 8.8,-8.8 V 19.9 c -0.2,-5 -4.1,-8.9 -9,-8.9"
   id="path6"
   inkscape:connector-curvature="0"
   style="fill:#0075a8;stroke:#ffffff;stroke-width:2;stroke-miterlimit:4;stroke-dasharray:none;stroke-opacity:1" />
	</g>
	
</g>
</svg>