<?xml version="1.0" encoding="UTF-8"?>
<svg xmlns="http://www.w3.org/2000/svg" xmlns:xlink="http://www.w3.org/1999/xlink" viewBox="0 0 48 48" version="1.1" width="48px" height="48px">
<g id="surface1">
<path style=" fill:#7E57C2;" d="M 25.015625 4 L 10.75 7.207031 C 10.457031 7.28125 8 7.871094 8 9.289063 L 8 35.992188 C 8.371094 36 8.71875 36 9.015625 36 L 25.015625 31 C 25.015625 31 26.015625 30.625 26.015625 29 C 26.015625 28 26.015625 4.996094 26.015625 4.996094 C 26.015625 4.445313 25.566406 4 25.015625 4 Z "/>
<path style=" fill:#4527A0;" d="M 25.015625 4 L 10.75 7.207031 C 10.457031 7.28125 8 7.871094 8 9.289063 L 8 35.992188 C 8.371094 36 8.71875 36 9.015625 36 L 25.015625 31 C 25.015625 31 26.015625 30.625 26.015625 29 C 26.015625 28 26.015625 4.996094 26.015625 4.996094 C 26.015625 4.445313 25.566406 4 25.015625 4 Z "/>
<path style=" fill:#7E57C2;" d="M 31 7.289063 L 15 11.289063 C 12.75 11.871094 7.984375 12.289063 8 9.289063 L 7.984375 9.289063 C 7.984375 18.949219 7.984375 36 7.984375 36 L 8 36 C 7.984375 39 12.792969 39 15 39 L 31 34 C 31 34 32 33.625 32 32 C 32 31 32 8.289063 32 8.289063 C 32 7.738281 31.554688 7.289063 31 7.289063 Z "/>
<path style=" fill:#7E57C2;" d="M 33.015625 8.625 L 18.75 12.207031 C 18.457031 12.28125 16 12.871094 16 14.289063 L 16 40.992188 C 16.371094 41 16.71875 41 17.015625 41 L 33.015625 36 C 33.015625 36 34.015625 35.625 34.015625 34 C 34.015625 33 34.015625 9.621094 34.015625 9.621094 C 34.015625 9.070313 33.566406 8.625 33.015625 8.625 Z "/>
<path style=" fill:#BF360C;" d="M 33.015625 8.625 L 18.75 12.207031 C 18.457031 12.28125 16 12.871094 16 14.289063 L 16 40.992188 C 16.371094 41 16.71875 41 17.015625 41 L 33.015625 36 C 33.015625 36 34.015625 35.625 34.015625 34 C 34.015625 33 34.015625 9.621094 34.015625 9.621094 C 34.015625 9.070313 33.566406 8.625 33.015625 8.625 Z "/>
<path style=" fill:#7E57C2;" d="M 16 40.992188 C 15.984375 43.992188 20.792969 44 23 44 L 39 38.667969 C 39 38.667969 40 38.292969 40 36.667969 C 40 35.667969 40 13 40 13 C 40 12.449219 39.554688 12.003906 39 12.003906 L 23 16.289063 C 20.75 16.871094 15.984375 17.289063 16 14.289063 "/>
<path style=" fill:#FF3D00;" d="M 16 40.992188 C 15.984375 43.992188 20.792969 44 23 44 L 39 38.667969 C 39 38.667969 40 38.292969 40 36.667969 C 40 35.667969 40 13 40 13 C 40 12.449219 39.554688 12.003906 39 12.003906 L 23 16.289063 C 20.75 16.871094 15.984375 17.289063 16 14.289063 "/>
<path style=" fill:#FFE0B2;" d="M 11 10.542969 C 11.753906 10.980469 12.960938 11.289063 14.019531 11.5 C 14.378906 11.4375 14.710938 11.367188 15 11.289063 L 29.515625 7.660156 L 25 6 L 12.082031 9.125 C 12.082031 9.125 9.417969 9.625 11 10.542969 Z "/>
<path style=" fill:#FFE0B2;" d="M 19 15.542969 C 19.753906 15.980469 20.960938 16.289063 22.019531 16.5 C 22.378906 16.4375 22.710938 16.367188 23 16.289063 L 37.894531 12.300781 L 33 10.625 L 20.082031 14.125 C 20.082031 14.125 17.417969 14.625 19 15.542969 Z "/>
<path style=" fill:#FFECB3;" d="M 38 25 L 38 20 L 24 24 L 24 29 Z "/>
</g>
</svg>
