<?xml version="1.0" encoding="UTF-8" standalone="no"?>
<!-- Generator: Adobe Illustrator 16.0.0, SVG Export Plug-In . SVG Version: 6.00 Build 0)  -->

<svg
   xmlns:dc="http://purl.org/dc/elements/1.1/"
   xmlns:cc="http://creativecommons.org/ns#"
   xmlns:rdf="http://www.w3.org/1999/02/22-rdf-syntax-ns#"
   xmlns:svg="http://www.w3.org/2000/svg"
   xmlns="http://www.w3.org/2000/svg"
   xmlns:sodipodi="http://sodipodi.sourceforge.net/DTD/sodipodi-0.dtd"
   xmlns:inkscape="http://www.inkscape.org/namespaces/inkscape"
   version="1.1"
   id="Layer_1"
   x="0px"
   y="0px"
   viewBox="0 0 275 145"
   enable-background="new 0 0 275 145"
   xml:space="preserve"
   sodipodi:docname="unifi.svg"
   inkscape:version="0.92.4 5da689c313, 2019-01-14"><metadata
   id="metadata968"><rdf:RDF><cc:Work
       rdf:about=""><dc:format>image/svg+xml</dc:format><dc:type
         rdf:resource="http://purl.org/dc/dcmitype/StillImage" /></cc:Work></rdf:RDF></metadata><defs
   id="defs966" /><sodipodi:namedview
   pagecolor="#ffffff"
   bordercolor="#666666"
   borderopacity="1"
   objecttolerance="10"
   gridtolerance="10"
   guidetolerance="10"
   inkscape:pageopacity="0"
   inkscape:pageshadow="2"
   inkscape:window-width="1920"
   inkscape:window-height="1023"
   id="namedview964"
   showgrid="false"
   inkscape:zoom="1.0436364"
   inkscape:cx="136.54181"
   inkscape:cy="72.5"
   inkscape:window-x="1920"
   inkscape:window-y="27"
   inkscape:window-maximized="1"
   inkscape:current-layer="Layer_1" />
<g
   id="g961"
   style="fill:#1f1f1f;fill-opacity:1">
	<path
   d="m 110.494,60.024 c 1.205,-7.381 3.917,-17.172 10.018,-25.607 8.21,-11.223 21.918,-20.938 48.73,-20.863 L 171.953,0.976 C 140.395,-0.003 120.812,12.199 110.344,27.036 102.135,38.559 99.046,51.139 97.841,59.95 Z m 22.821,0 c 1.055,-3.69 2.712,-7.683 5.272,-11.222 4.67,-6.327 11.9,-11.9 25.984,-13.03 l 2.712,-12.805 c -19.356,0.527 -32.01,8.587 -38.864,18.453 -4.519,6.327 -6.778,12.955 -7.983,18.528 z m -13.029,0 h 13.029 z"
   id="path955"
   inkscape:connector-curvature="0"
   style="fill:#1f1f1f;fill-opacity:1" />
	<path
   d="m 159.225,59.949 2.787,-12.804 c -7.833,0.603 -12.428,4.143 -15.516,8.661 -1.13,1.582 -1.808,2.636 -2.485,4.143 z m 84.506,0 h -13.558 l 2.862,-12.804 c 0.001,0.076 10.47,2.411 10.696,12.804 z M 32.541,47.221 18.08,115.383 c -2.561,11.976 1.054,17.323 10.243,17.323 9.038,0 15.063,-5.348 17.624,-17.323 L 60.483,47.221 h 15.139 l -14.234,66.957 c -4.67,21.993 -17.323,29.901 -35.399,29.901 -18.227,0 -27.491,-7.983 -22.821,-29.901 L 17.403,47.221 Z M 81.572,70.72 h 13.633 l -1.732,8.36 h 0.377 c 4.971,-6.402 12.578,-10.243 20.562,-10.243 10.921,0 16.796,4.971 13.708,19.432 l -11.448,54.078 H 102.286 L 112.68,93.24 c 1.958,-9.339 0,-12.954 -7.23,-12.954 -5.875,0 -12.428,4.67 -14.386,14.009 L 80.821,142.348 H 66.509 Z m 61.083,0 h 14.386 l -15.215,71.627 H 127.44 Z m 30.73,-23.499 h 48.505 l -2.787,12.804 h -33.29 l -5.574,26.361 h 33.366 l -2.637,12.804 h -33.365 l -9.188,43.157 H 153.2 Z M 227.99,70.72 h 14.385 l -15.214,71.627 h -14.386 z"
   id="path957"
   inkscape:connector-curvature="0"
   style="fill:#1f1f1f;fill-opacity:1" />
	<path
   d="m 263.313,67.18 c -5.724,0 -9.791,-4.293 -9.791,-9.942 0,-6.025 4.52,-9.941 9.791,-9.941 5.197,0 9.717,3.992 9.717,9.941 0.075,5.95 -4.444,9.942 -9.717,9.942 z m 0,-18.227 c -4.293,0 -7.682,3.389 -7.682,8.21 0,4.519 2.937,8.209 7.682,8.209 4.293,0 7.607,-3.389 7.607,-8.209 0.076,-4.821 -3.314,-8.21 -7.607,-8.21 z m -1.958,13.934 h -1.808 V 51.891 h 4.143 c 2.637,0 3.992,0.903 3.992,3.163 0,2.033 -1.205,2.787 -2.862,3.013 l 3.088,4.82 h -2.033 l -2.862,-4.745 h -1.732 z m 2.035,-6.251 c 1.355,0 2.561,-0.151 2.561,-1.732 0,-1.356 -1.28,-1.507 -2.41,-1.507 h -2.185 v 3.239 z"
   id="path959"
   inkscape:connector-curvature="0"
   style="fill:#1f1f1f;fill-opacity:1" />
</g>
</svg>